<svg width="316" height="526" viewBox="0 0 316 526" fill="none" xmlns="http://www.w3.org/2000/svg">
<path d="M255.657 1H14C6.8203 1 1 6.82031 1 14V512C1 519.18 6.8203 525 14 525H302C309.18 525 315 519.18 315 512V78.2646C315 75.5351 314.141 72.8748 312.544 70.6608L266.201 6.39619C263.758 3.0077 259.834 1 255.657 1Z" fill="#111010" fill-opacity="0.5"/>
<path d="M255.657 1H14C6.8203 1 1 6.82031 1 14V512C1 519.18 6.8203 525 14 525H302C309.18 525 315 519.18 315 512V78.2646C315 75.5351 314.141 72.8748 312.544 70.6608L266.201 6.39619C263.758 3.0077 259.834 1 255.657 1Z" stroke="#fff"/>

</svg>
