<svg width="316" height="526" viewBox="0 0 316 526" fill="none" xmlns="http://www.w3.org/2000/svg">
<g filter="url(#filter0_b_93_1799)">
<path d="M255.657 1H14C6.8203 1 1 6.82031 1 14V512C1 519.18 6.8203 525 14 525H302C309.18 525 315 519.18 315 512V78.2646C315 75.5351 314.141 72.8748 312.544 70.6608L266.201 6.39619C263.758 3.0077 259.834 1 255.657 1Z" fill="#111010" fill-opacity="0.5"/>
<path d="M255.657 1H14C6.8203 1 1 6.82031 1 14V512C1 519.18 6.8203 525 14 525H302C309.18 525 315 519.18 315 512V78.2646C315 75.5351 314.141 72.8748 312.544 70.6608L266.201 6.39619C263.758 3.0077 259.834 1 255.657 1Z" stroke="url(#paint0_linear_93_1799)"/>
</g>
<defs>
<filter id="filter0_b_93_1799" x="-9.5" y="-9.5" width="335" height="545" filterUnits="userSpaceOnUse" color-interpolation-filters="sRGB">
<feFlood flood-opacity="0" result="BackgroundImageFix"/>
<feGaussianBlur in="BackgroundImageFix" stdDeviation="5"/>
<feComposite in2="SourceAlpha" operator="in" result="effect1_backgroundBlur_93_1799"/>
<feBlend mode="normal" in="SourceGraphic" in2="effect1_backgroundBlur_93_1799" result="shape"/>
</filter>
<linearGradient id="paint0_linear_93_1799" x1="158" y1="1" x2="158" y2="538.655" gradientUnits="userSpaceOnUse">
<stop offset="0.001807" stop-color="#812343"/>
<stop offset="1" stop-color="#BC2848"/>
</linearGradient>
</defs>
</svg>
