<svg width="31" height="31" viewBox="0 0 31 31" fill="none" xmlns="http://www.w3.org/2000/svg">
<path d="M13.33 22.63L24.2575 11.7025L22.0875 9.5325L13.33 18.29L8.9125 13.8725L6.7425 16.0425L13.33 22.63ZM15.5 31C13.3558 31 11.3408 30.5929 9.455 29.7786C7.56917 28.9643 5.92875 27.8602 4.53375 26.4662C3.13875 25.0712 2.03463 23.4308 1.2214 21.545C0.408167 19.6592 0.00103333 17.6442 0 15.5C0 13.3558 0.407133 11.3408 1.2214 9.455C2.03567 7.56917 3.13978 5.92875 4.53375 4.53375C5.92875 3.13875 7.56917 2.03463 9.455 1.2214C11.3408 0.408167 13.3558 0.00103333 15.5 0C17.6442 0 19.6592 0.407133 21.545 1.2214C23.4308 2.03567 25.0712 3.13978 26.4662 4.53375C27.8612 5.92875 28.9659 7.56917 29.7801 9.455C30.5944 11.3408 31.001 13.3558 31 15.5C31 17.6442 30.5929 19.6592 29.7786 21.545C28.9643 23.4308 27.8602 25.0712 26.4662 26.4662C25.0712 27.8612 23.4308 28.9659 21.545 29.7801C19.6592 30.5944 17.6442 31.001 15.5 31Z" fill="url(#paint0_linear_93_1674)"/>
<defs>
<linearGradient id="paint0_linear_93_1674" x1="15.5" y1="0" x2="15.5" y2="31.8078" gradientUnits="userSpaceOnUse">
<stop offset="0.001807" stop-color="#812343"/>
<stop offset="1" stop-color="#BC2848"/>
</linearGradient>
</defs>
</svg>
