<svg width="105" height="132" viewBox="0 0 105 132" fill="none" xmlns="http://www.w3.org/2000/svg">
<path d="M68.6846 53.043H39.328C25.827 53.043 14.875 64.0062 14.875 77.521V106.908C14.875 120.422 25.827 131.386 39.328 131.386H68.6846C82.1856 131.386 93.1376 120.422 93.1376 106.908V77.521C93.1376 64.0062 82.1856 53.043 68.6846 53.043ZM85.7931 106.908C85.7931 116.357 78.1245 124.034 68.6846 124.034H39.328C29.8881 124.034 22.2195 116.357 22.2195 106.908V77.521C22.2195 68.0714 29.8881 60.395 39.328 60.395H68.6846C78.1245 60.395 85.7931 68.0714 85.7931 77.521V106.908Z" fill="url(#paint0_linear_93_1373)"/>
<path d="M53.9955 72.634C43.1947 72.634 34.4244 81.4133 34.4244 92.2251C34.4244 103.037 43.1947 111.816 53.9955 111.816C64.7963 111.816 73.5666 103.037 73.5666 92.2251C73.5666 81.4133 64.7963 72.634 53.9955 72.634ZM53.9955 104.464C47.2558 104.464 41.769 98.9717 41.769 92.2251C41.769 85.4785 47.2558 79.9861 53.9955 79.9861C60.7352 79.9861 66.222 85.4785 66.222 92.2251C66.222 98.9717 60.7352 104.464 53.9955 104.464Z" fill="url(#paint1_linear_93_1373)"/>
<path d="M75.0355 68.5471C76.4828 68.5471 77.6493 69.7148 77.6493 71.1636C77.6493 72.6124 76.4828 73.7801 75.0355 73.7801C73.5882 73.7801 72.4217 72.6124 72.4217 71.1636C72.4217 69.7148 73.5882 68.5471 75.0355 68.5471Z" fill="url(#paint2_linear_93_1373)"/>
<path style="mix-blend-mode:screen" opacity="0.2" d="M54.298 54.4053C82.1908 54.4053 104.802 42.2262 104.802 27.2026C104.802 12.179 82.1908 0 54.298 0C26.4051 0 3.7934 12.179 3.7934 27.2026C3.7934 42.2262 26.4051 54.4053 54.298 54.4053Z" fill="url(#paint3_radial_93_1373)"/>
<path style="mix-blend-mode:screen" opacity="0.6" d="M39.6953 92.2252C61.1578 92.2252 78.5566 77.1611 78.5566 58.5786C78.5566 39.9962 61.1578 24.9321 39.6953 24.9321C18.2328 24.9321 0.833984 39.9962 0.833984 58.5786C0.833984 77.1611 18.2328 92.2252 39.6953 92.2252Z" fill="url(#paint4_radial_93_1373)"/>
<defs>
<linearGradient id="paint0_linear_93_1373" x1="52.6346" y1="43.8313" x2="54.7992" y2="120.595" gradientUnits="userSpaceOnUse">
<stop stop-color="#FFE55E"/>
<stop offset="0.43" stop-color="#FF435E"/>
<stop offset="1" stop-color="#452277"/>
</linearGradient>
<linearGradient id="paint1_linear_93_1373" x1="52.6346" y1="43.8312" x2="54.7992" y2="120.595" gradientUnits="userSpaceOnUse">
<stop stop-color="#FFE55E"/>
<stop offset="0.43" stop-color="#FF435E"/>
<stop offset="1" stop-color="#452277"/>
</linearGradient>
<linearGradient id="paint2_linear_93_1373" x1="74.2578" y1="43.2258" x2="76.4224" y2="119.99" gradientUnits="userSpaceOnUse">
<stop stop-color="#FFE55E"/>
<stop offset="0.43" stop-color="#FF435E"/>
<stop offset="1" stop-color="#452277"/>
</linearGradient>
<radialGradient id="paint3_radial_93_1373" cx="0" cy="0" r="1" gradientUnits="userSpaceOnUse" gradientTransform="translate(54.7408 27.2379) scale(50.4181 27.2537)">
<stop stop-color="#FFE55E"/>
<stop offset="0.12" stop-color="#FFE25E" stop-opacity="0.78"/>
<stop offset="0.24" stop-color="#FFDF5E" stop-opacity="0.57"/>
<stop offset="0.37" stop-color="#FFDD5E" stop-opacity="0.4"/>
<stop offset="0.5" stop-color="#FFDC5E" stop-opacity="0.25"/>
<stop offset="0.62" stop-color="#FFDA5E" stop-opacity="0.14"/>
<stop offset="0.75" stop-color="#FFD95E" stop-opacity="0.06"/>
<stop offset="0.88" stop-color="#FFD95E" stop-opacity="0.02"/>
<stop offset="1" stop-color="#FFD95F" stop-opacity="0"/>
</radialGradient>
<radialGradient id="paint4_radial_93_1373" cx="0" cy="0" r="1" gradientUnits="userSpaceOnUse" gradientTransform="translate(39.8836 58.5786) scale(38.99 33.6465)">
<stop stop-color="#FFE55E"/>
<stop offset="0.12" stop-color="#FFE25E" stop-opacity="0.78"/>
<stop offset="0.24" stop-color="#FFDF5E" stop-opacity="0.57"/>
<stop offset="0.37" stop-color="#FFDD5E" stop-opacity="0.4"/>
<stop offset="0.5" stop-color="#FFDC5E" stop-opacity="0.25"/>
<stop offset="0.62" stop-color="#FFDA5E" stop-opacity="0.14"/>
<stop offset="0.75" stop-color="#FFD95E" stop-opacity="0.06"/>
<stop offset="0.88" stop-color="#FFD95E" stop-opacity="0.02"/>
<stop offset="1" stop-color="#FFD95F" stop-opacity="0"/>
</radialGradient>
</defs>
</svg>
