<svg width="387" height="93" viewBox="0 0 387 93" fill="none" xmlns="http://www.w3.org/2000/svg">
<path d="M309.194 50.1067C309.059 48.4624 300.983 21.0982 298.557 16.8393C295.931 12.2297 292.764 11.3169 289.771 12.3295C290.343 11.3743 291.029 9.89016 291.601 7.66548C292.55 3.96574 291.875 0 291.875 0C291.875 0 291.74 6.02417 288.738 10.5431C287.552 12.3295 286.519 13.5234 285.712 14.3093C285.155 14.5692 284.562 14.7869 283.83 14.9229C282.388 15.1949 280.967 12.1844 281.512 7.52946C281.512 7.52946 280.422 11.0902 281.103 14.6478C281.783 18.2085 284.649 17.6584 286.829 16.1531C289.012 14.6478 292.42 13.5506 295.558 17.2473C298.695 20.944 306.195 46.8211 306.605 50.1067C307.014 53.3924 305.241 62.9772 303.741 68.7264C302.242 74.4755 300.194 78.7193 300.194 78.7193C300.194 78.7193 302.787 74.7475 305.65 66.6709C308.14 59.6523 309.332 51.748 309.197 50.1037L309.194 50.1067Z" fill="white"/>
<path d="M269.508 21.6272C272.1 17.5194 272.371 7.3874 272.371 7.3874C272.371 7.3874 271.691 13.0005 269.779 18.0665C267.87 23.1325 264.597 24.0906 264.597 24.0906C264.597 24.0906 266.915 25.735 269.508 21.6272Z" fill="white"/>
<path d="M272.236 55.5808C273.326 54.6226 273.1 51.875 270.462 46.271C268.144 41.341 265.551 38.1944 263.131 36.7224C263.82 37.5989 264.507 38.6085 265.172 39.6846C263.932 39.0347 262.739 40.1743 260.508 43.5324C257.235 48.4624 255.872 53.5254 255.872 53.5254C258.735 47.5012 263.507 42.4352 265.01 42.4352C265.398 42.4352 265.783 42.5622 266.145 42.7526C266.873 43.1365 267.439 43.7712 267.798 44.5148C269.755 48.5803 271.019 52.41 270.601 53.2503C269.782 54.8946 264.191 56.672 260.237 59.2745C258.458 60.4442 256.215 62.01 254.222 64.0382C252.391 63.5425 246.589 57.0589 246.192 56.1279C245.782 55.1697 251.373 39.0135 254.237 33.5365C257.1 28.0594 260.102 23.9516 263.236 23.8156C263.236 23.8156 260.373 22.4463 257.236 25.5959C254.098 28.7456 248.372 42.2992 246.463 47.2261C244.551 52.1591 243.732 56.1309 244.006 56.814C244.28 57.4971 248.507 62.9742 250.416 64.7546C251.157 65.4437 251.75 65.9878 252.204 66.3989C250.714 68.4422 249.6 70.8452 249.326 73.6533C248.646 80.6357 252.873 88.7122 252.873 88.7122C252.873 88.7122 249.326 77.7581 253.418 70.0926C257.509 62.4271 271.146 56.539 272.239 55.5808H272.236Z" fill="white"/>
<path d="M281.509 49.0095C281.509 56.2669 278.101 63.1102 278.101 63.1102C278.101 63.1102 282.738 58.1803 283.418 50.5148C284.098 42.8493 276.598 27.9234 276.598 27.9234C276.598 27.9234 281.509 41.7521 281.509 49.0065V49.0095Z" fill="white"/>
<path d="M297.464 38.6055C297.328 33.1284 295.145 26.6932 295.145 26.6932C295.145 26.6932 296.783 32.3063 296.235 38.6055C295.69 44.9047 293.372 53.6644 292.688 57.5002C292.008 61.3329 296.506 72.5591 297.19 79.6805C297.87 86.7989 296.1 91.5928 296.1 91.5928C296.1 91.5928 298.283 86.5268 298.418 80.0916C298.554 73.6563 295.01 62.9772 294.736 59.2805C294.462 55.5838 297.599 44.0826 297.464 38.6085V38.6055Z" fill="white"/>
<path d="M275.918 87.618C274.689 84.3324 275.099 81.4578 275.099 81.4578C275.099 81.4578 269.643 87.8931 262.688 83.5102C256.856 79.8377 256.143 70.6397 256.143 70.6397C256.143 70.6397 256.007 78.1692 259.415 83.2352C262.824 88.3011 267.599 88.0261 269.779 87.479C271.962 86.9319 273.735 85.8346 273.735 85.8346C273.735 85.8346 274.009 88.8452 276.463 90.9006C278.917 92.953 280.964 92.953 280.964 92.953C280.964 92.953 277.146 90.9006 275.918 87.615V87.618Z" fill="white"/>
<path d="M24.808 66.5203L11.016 50.6877L3.6573 58.3158V66.5203H2.15913V35.4761H3.6573V56.3644L23.8386 35.4761H25.6892L12.0294 49.6677L26.6586 66.5203H24.808Z" fill="white"/>
<path d="M57.1185 35.4761H58.6167V66.5203H57.3829L35.4831 38.2257V66.5203H33.985V35.4761H35.2187L57.1185 63.7707V35.4761Z" fill="white"/>
<path d="M71.0175 66.5203V35.4761H72.5157V66.5203H71.0175Z" fill="white"/>
<path d="M107.945 66.5203L103.803 57.4288H85.34L81.198 66.5203H79.5677L93.8444 35.4761H95.2985L109.575 66.5203H107.945ZM85.9129 56.1427H103.23L94.5934 37.2057L85.9129 56.1427Z" fill="white"/>
<path d="M115.228 65.1455H137.701V66.5203H113.201V65.4559L135.189 36.8509H113.421V35.4761H137.216V36.5405L115.228 65.1455Z" fill="white"/>
<path d="M147.553 65.1455H166.897V66.5203H146.055V35.4761H166.281V36.8509H147.553V50.0669H164.298V51.4417H147.553V65.1455Z" fill="white"/>
<path d="M198.412 35.4761H199.998L186.162 66.5203H184.708L170.872 35.4761H172.547L185.501 64.569L198.412 35.4761Z" fill="white"/>
<path d="M228.578 66.5203L224.436 57.4288H205.973L201.831 66.5203H200.201L214.478 35.4761H215.932L230.209 66.5203H228.578ZM206.546 56.1427H223.863L215.227 37.2057L206.546 56.1427Z" fill="white"/>
<path d="M345.369 37.5161H326.995V50.7764H343.43V52.8165H326.995V66.5203H324.747V35.4761H345.369V37.5161Z" fill="white"/>
<path d="M353.647 66.5203V35.4761H355.894V66.5203H353.647Z" fill="white"/>
<path d="M373.649 66.5203V37.5161H362.545V35.4761H387V37.5161H375.896V66.5203H373.649Z" fill="white"/>
<path d="M5.55205 85.795V86.1123H2.94889V92.9591H2.60316V86.1123H0V85.795H5.55205Z" fill="white"/>
<path d="M9.89086 93C7.79613 93 6.22 91.4546 6.22 89.377C6.22 87.2995 7.79613 85.7541 9.89086 85.7541C11.9958 85.7541 13.5719 87.2995 13.5719 89.377C13.5719 91.4546 11.9958 93 9.89086 93ZM9.89086 92.6827C11.7924 92.6827 13.2262 91.2704 13.2262 89.377C13.2262 87.4837 11.7924 86.0713 9.89086 86.0713C7.9995 86.0713 6.56573 87.4837 6.56573 89.377C6.56573 91.2704 7.9995 92.6827 9.89086 92.6827Z" fill="white"/>
<path d="M19.792 85.795V86.1123H17.1889V92.9591H16.8432V86.1123H14.24V85.795H19.792Z" fill="white"/>
<path d="M26.8021 93C24.7074 93 23.1312 91.4546 23.1312 89.377C23.1312 87.2995 24.7074 85.7541 26.8021 85.7541C27.7681 85.7541 28.6528 86.0713 29.2731 86.7059L29.0595 86.931C28.4291 86.317 27.6563 86.0713 26.8123 86.0713C24.9107 86.0713 23.477 87.5041 23.477 89.377C23.477 91.2499 24.9107 92.6827 26.8123 92.6827C27.6563 92.6827 28.4291 92.4269 29.0595 91.8128L29.2731 92.038C28.6528 92.6827 27.7681 93 26.8021 93Z" fill="white"/>
<path d="M36.2826 92.9591L35.3268 90.861H31.0661L30.1103 92.9591H29.7341L33.0287 85.795H33.3642L36.6589 92.9591H36.2826ZM31.1983 90.5642H35.1946L33.2015 86.1941L31.1983 90.5642Z" fill="white"/>
<path d="M45.3292 92.9591H44.9936L44.9834 86.5012L41.8617 91.9663H41.6787L38.5467 86.5216V92.9591H38.2112V85.795H38.4959L41.7702 91.5263L45.0343 85.795H45.319L45.3292 92.9591Z" fill="white"/>
<path d="M50.7782 88.4662C52.4458 88.4662 53.3305 89.2235 53.3305 90.6768C53.3305 92.171 52.395 92.9591 50.6562 92.9591H48.0123V85.795H48.3581V88.4662H50.7782ZM54.7033 92.9591V85.795H55.049V92.9591H54.7033ZM50.6867 92.6623C52.2018 92.6623 52.9848 91.9868 52.9848 90.687C52.9848 89.3873 52.2221 88.763 50.6867 88.763H48.3581V92.6623H50.6867Z" fill="white"/>
<path d="M60.5609 85.2424C59.6966 85.2424 59.0661 84.792 59.0458 84.0449H59.3407C59.361 84.6283 59.8695 84.9967 60.5609 84.9967C61.2524 84.9967 61.7608 84.6283 61.7812 84.0449H62.076C62.0557 84.792 61.4151 85.2424 60.5609 85.2424ZM57.7341 92.9591V85.795H58.0798V92.3552L63.1539 85.795H63.4386V92.9591H63.1031V86.3988L58.0188 92.9591H57.7341Z" fill="white"/>
<path d="M73.0083 85.795V86.1123H70.4052V92.9591H70.0594V86.1123H67.4563V85.795H73.0083Z" fill="white"/>
<path d="M76.9177 85.795C78.687 85.795 79.7445 86.6752 79.7445 88.1694C79.7445 89.6738 78.687 90.554 76.9177 90.554H74.7924V92.9591H74.4467V85.795H76.9177ZM76.938 90.2367C78.5345 90.2367 79.409 89.4896 79.409 88.1694C79.409 86.8594 78.5345 86.1123 76.938 86.1123H74.7924V90.2367H76.938Z" fill="white"/>
<path d="M81.8429 92.6418H86.3069V92.9591H81.4972V85.795H86.1646V86.1123H81.8429V89.1621H85.707V89.4794H81.8429V92.6418Z" fill="white"/>
<path d="M93.4294 85.795H93.7751V92.9591H93.4294V89.4794H88.4366V92.9591H88.0909V85.795H88.4366V89.1621H93.4294V85.795Z" fill="white"/>
<path d="M96.8078 92.6418H101.272V92.9591H96.4621V85.795H101.129V86.1123H96.8078V89.1621H100.672V89.4794H96.8078V92.6418Z" fill="white"/>
<path d="M105.527 85.795C107.296 85.795 108.354 86.6752 108.354 88.1694C108.354 89.6738 107.296 90.554 105.527 90.554H103.402V92.9591H103.056V85.795H105.527ZM105.547 90.2367C107.144 90.2367 108.018 89.4896 108.018 88.1694C108.018 86.8594 107.144 86.1123 105.547 86.1123H103.402V90.2367H105.547Z" fill="white"/>
</svg>
