<svg width="30" height="30" viewBox="0 0 30 30" fill="none" xmlns="http://www.w3.org/2000/svg">
<path d="M23.4897 5.76904H5.35628C4.54772 5.76904 3.77229 6.07545 3.20055 6.62085C2.62881 7.16625 2.30762 7.90597 2.30762 8.67729V21.3223C2.30762 22.0937 2.62881 22.8334 3.20055 23.3788C3.77229 23.9242 4.54772 24.2306 5.35628 24.2306H23.4897C24.2983 24.2306 25.0737 23.9242 25.6455 23.3788C26.2172 22.8334 26.5384 22.0937 26.5384 21.3223V8.67729C26.5384 7.90597 26.2172 7.16625 25.6455 6.62085C25.0737 6.07545 24.2983 5.76904 23.4897 5.76904ZM5.35628 6.93234H23.4897C23.9513 6.93107 24.3961 7.09754 24.7336 7.3979C25.0711 7.69827 25.276 8.10998 25.3067 8.54932C22.2946 10.0849 19.2704 11.6088 16.2461 13.1444C15.837 13.3889 15.4041 13.5954 14.9535 13.7609C14.5997 13.8275 14.2351 13.8215 13.884 13.7433C13.5329 13.665 13.2032 13.5164 12.917 13.3072C11.1853 12.4347 9.45368 11.5506 7.73424 10.6782C6.34405 9.98018 4.92947 9.27057 3.53928 8.56096C3.56756 8.11974 3.77137 7.70547 4.10907 7.40277C4.44678 7.10008 4.89289 6.93181 5.35628 6.93234ZM25.3189 21.3223C25.3189 21.7851 25.1262 22.229 24.7832 22.5562C24.4401 22.8834 23.9749 23.0673 23.4897 23.0673H5.35628C4.87115 23.0673 4.40588 22.8834 4.06284 22.5562C3.7198 22.229 3.52708 21.7851 3.52708 21.3223V9.8813C6.40502 11.3238 9.27076 12.7895 12.1487 14.2437C12.6629 14.5444 13.2164 14.7791 13.795 14.9416C14.6418 15.073 15.5096 14.9033 16.2339 14.4647C18.0021 13.5806 19.7582 12.6848 21.5264 11.8007C22.7946 11.1493 24.0507 10.5211 25.3189 9.8813V21.3223Z" fill="#AFADAD"/>
</svg>
