<svg width="33" height="33" viewBox="0 0 33 33" fill="none" xmlns="http://www.w3.org/2000/svg">
<path fill-rule="evenodd" clip-rule="evenodd" d="M32.0001 15.5006C32.5524 15.5006 33.0001 15.9484 33.0001 16.5006C33.0001 17.0529 32.5524 17.5006 32.0001 17.5006L17.5001 17.5006L17.5001 32.0001C17.5001 32.5524 17.0524 33.0001 16.5001 33.0001C15.9478 33.0001 15.5001 32.5524 15.5001 32.0001V17.5006H1C0.447716 17.5006 0 17.0529 0 16.5006C0 15.9484 0.447716 15.5006 1 15.5006H15.5001V1C15.5001 0.447716 15.9478 0 16.5001 0C17.0524 0 17.5001 0.447716 17.5001 1V15.5006H32.0001Z" fill="white"/>
</svg>
