<svg width="40" height="40" viewBox="0 0 40 40" fill="none" xmlns="http://www.w3.org/2000/svg">
<path d="M31.3601 16.4286C30.79 16.428 30.2329 16.5992 29.7616 16.92C29.6199 16.5065 29.3847 16.1313 29.0743 15.8235C28.764 15.5158 28.3868 15.2837 27.9721 15.1455C27.5574 15.0073 27.1165 14.9666 26.6835 15.0266C26.2506 15.0866 25.8373 15.2457 25.4758 15.4915C25.3416 15.0927 25.1197 14.729 24.8266 14.427C24.5335 14.1251 24.1765 13.8926 23.7819 13.7466C23.3872 13.6006 22.9649 13.5447 22.5458 13.5831C22.1268 13.6215 21.7216 13.7532 21.3601 13.9686V5.00003C21.3601 4.24226 21.0591 3.51554 20.5233 2.97972C19.9875 2.4439 19.2607 2.14288 18.503 2.14288C17.7452 2.14288 17.0185 2.4439 16.4827 2.97972C15.9469 3.51554 15.6458 4.24226 15.6458 5.00003V24.9615C15.6472 24.9992 15.6366 25.0363 15.6156 25.0676C15.5945 25.0989 15.5641 25.1228 15.5287 25.1357C15.4946 25.1521 15.456 25.1569 15.4189 25.1495C15.3818 25.142 15.3481 25.1226 15.323 25.0943L13.0458 22.8186C12.3849 22.1523 11.5503 21.6848 10.6369 21.4691C9.72346 21.2534 8.76788 21.2983 7.87869 21.5986C7.56946 21.7012 7.28808 21.8739 7.05648 22.103C6.82487 22.3322 6.64929 22.6118 6.5434 22.9199C6.4375 23.228 6.40416 23.5564 6.44596 23.8796C6.48777 24.2027 6.60359 24.5118 6.78441 24.7829L11.4801 31.8243C12.2097 32.9263 13.0323 33.9639 13.9387 34.9257C14.8448 35.8616 15.9313 36.6038 17.1325 37.1077C18.3338 37.6116 19.6247 37.8665 20.9273 37.8572H24.4987C26.459 37.8635 28.3757 37.279 29.999 36.18C31.6222 35.0809 32.8766 33.5182 33.5987 31.6957C34.0117 30.667 34.2231 29.5685 34.2215 28.46V19.2857C34.2216 18.9102 34.1475 18.5383 34.0037 18.1914C33.8598 17.8444 33.649 17.5293 33.3832 17.2639C33.1174 16.9986 32.802 16.7882 32.4548 16.6449C32.1077 16.5015 31.7357 16.428 31.3601 16.4286ZM32.7887 28.46C32.7893 29.3864 32.6128 30.3043 32.2687 31.1643C31.652 32.7214 30.5803 34.0566 29.1935 34.9956C27.8068 35.9347 26.1692 36.434 24.4944 36.4286H20.923C19.8144 36.438 18.7154 36.2228 17.6923 35.7958C16.6691 35.3688 15.7431 34.739 14.9701 33.9443C14.1205 33.0409 13.3491 32.0669 12.6644 31.0329L7.97298 23.9915C7.91416 23.9028 7.8766 23.8017 7.86322 23.6962C7.84984 23.5906 7.861 23.4834 7.89584 23.3829C7.92956 23.2833 7.98576 23.1929 8.06008 23.1186C8.13441 23.0442 8.22485 22.988 8.32441 22.9543C8.96328 22.7377 9.65014 22.7048 10.3068 22.8594C10.9634 23.0139 11.5635 23.3498 12.0387 23.8286L14.3158 26.1043C14.5419 26.3307 14.8301 26.485 15.1438 26.5475C15.4576 26.6101 15.7829 26.5782 16.0785 26.4558C16.3742 26.3335 16.6269 26.1262 16.8046 25.8602C16.9824 25.5942 17.0773 25.2814 17.0773 24.9615V5.00003C17.0773 4.62115 17.2278 4.25778 17.4957 3.98987C17.7636 3.72196 18.127 3.57145 18.5058 3.57145C18.8847 3.57145 19.2481 3.72196 19.516 3.98987C19.7839 4.25778 19.9344 4.62115 19.9344 5.00003V17.8572C19.9344 18.0466 20.0097 18.2283 20.1436 18.3622C20.2776 18.4962 20.4593 18.5715 20.6487 18.5715C20.8381 18.5715 21.0198 18.4962 21.1538 18.3622C21.2877 18.2283 21.363 18.0466 21.363 17.8572V16.4286C21.363 16.0497 21.5135 15.6864 21.7814 15.4184C22.0493 15.1505 22.4127 15 22.7916 15C23.1704 15 23.5338 15.1505 23.8017 15.4184C24.0696 15.6864 24.2201 16.0497 24.2201 16.4286V18.5715C24.2201 18.7609 24.2954 18.9426 24.4293 19.0765C24.5633 19.2105 24.745 19.2857 24.9344 19.2857C25.1238 19.2857 25.3055 19.2105 25.4395 19.0765C25.5734 18.9426 25.6487 18.7609 25.6487 18.5715V17.8572C25.6487 17.4783 25.7992 17.1149 26.0671 16.847C26.335 16.5791 26.6984 16.4286 27.0773 16.4286C27.4561 16.4286 27.8195 16.5791 28.0874 16.847C28.3553 17.1149 28.5058 17.4783 28.5058 17.8572V20C28.5058 20.1895 28.5811 20.3711 28.715 20.5051C28.849 20.6391 29.0307 20.7143 29.2201 20.7143C29.4096 20.7143 29.5912 20.6391 29.7252 20.5051C29.8592 20.3711 29.9344 20.1895 29.9344 20V19.2857C29.9344 18.9069 30.0849 18.5435 30.3528 18.2756C30.6207 18.0077 30.9841 17.8572 31.363 17.8572C31.7419 17.8572 32.1052 18.0077 32.3731 18.2756C32.641 18.5435 32.7916 18.9069 32.7916 19.2857L32.7887 28.46Z" fill="#434343"/>
<path d="M24.2858 7.85717H29.7044L28.0658 9.49432C27.9317 9.62844 27.8563 9.81035 27.8563 10C27.8563 10.1897 27.9317 10.3716 28.0658 10.5057C28.1999 10.6399 28.3819 10.7152 28.5715 10.7152C28.7612 10.7152 28.9431 10.6399 29.0772 10.5057L31.9344 7.6486C32.0009 7.58225 32.0537 7.50343 32.0897 7.41665C32.1257 7.32987 32.1442 7.23684 32.1442 7.14289C32.1442 7.04893 32.1257 6.9559 32.0897 6.86913C32.0537 6.78235 32.0009 6.70352 31.9344 6.63717L29.0772 3.78003C28.9431 3.64591 28.7612 3.57056 28.5715 3.57056C28.3819 3.57056 28.1999 3.64591 28.0658 3.78003C27.9317 3.91415 27.8563 4.09606 27.8563 4.28574C27.8563 4.47542 27.9317 4.65734 28.0658 4.79146L29.7044 6.4286H24.2858C24.0964 6.4286 23.9147 6.50386 23.7807 6.63781C23.6468 6.77177 23.5715 6.95345 23.5715 7.14289C23.5715 7.33233 23.6468 7.51401 23.7807 7.64796C23.9147 7.78192 24.0964 7.85717 24.2858 7.85717Z" fill="#434343"/>
<path d="M8.57148 10.7143C8.71294 10.7146 8.85129 10.6728 8.96899 10.5943C9.08669 10.5159 9.17844 10.4042 9.23261 10.2735C9.28677 10.1429 9.30092 9.99906 9.27325 9.86033C9.24559 9.7216 9.17735 9.59421 9.0772 9.49432L7.43863 7.85717H12.8572C13.0466 7.85717 13.2283 7.78192 13.3623 7.64796C13.4962 7.51401 13.5715 7.33233 13.5715 7.14289C13.5715 6.95345 13.4962 6.77177 13.3623 6.63781C13.2283 6.50386 13.0466 6.4286 12.8572 6.4286H7.43863L9.0772 4.79146C9.21132 4.65734 9.28667 4.47542 9.28667 4.28574C9.28667 4.09606 9.21132 3.91415 9.0772 3.78003C8.94308 3.64591 8.76116 3.57056 8.57148 3.57056C8.38181 3.57056 8.19989 3.64591 8.06577 3.78003L5.20863 6.63717C5.14211 6.70352 5.08933 6.78235 5.05332 6.86913C5.01731 6.9559 4.99878 7.04893 4.99878 7.14289C4.99878 7.23684 5.01731 7.32987 5.05332 7.41665C5.08933 7.50343 5.14211 7.58225 5.20863 7.6486L8.06577 10.5057C8.13223 10.572 8.2111 10.6246 8.29787 10.6604C8.38464 10.6961 8.47762 10.7145 8.57148 10.7143Z" fill="#434343"/>
</svg>
