<svg width="33" height="32" viewBox="0 0 33 32" fill="none" xmlns="http://www.w3.org/2000/svg">
<g clip-path="url(#clip0_93_1542)">
<path d="M10.5809 3.23895C10.4837 2.99929 10.5169 2.51335 10.9671 2.1051C11.3007 1.80244 11.8032 1.7465 12.2536 1.72625C12.7039 1.70601 13.1669 1.81804 13.5319 2.08231C14.222 2.58189 14.4447 3.51192 14.4547 4.36291C14.4588 4.70081 14.4375 5.03977 14.4705 5.37602C14.5944 6.63706 15.4501 7.68902 16.2688 8.65714C16.635 9.09029 17.0233 9.53963 17.5515 9.7478C16.1082 9.7376 14.6412 9.7604 13.3081 9.20787C12.9844 9.07364 12.6607 8.89831 12.461 8.61065C12.2539 8.31219 12.2073 7.93004 12.2234 7.56724C12.26 6.74489 12.58 5.89271 12.2845 5.12421C12.0954 4.63212 11.6787 4.26212 11.2378 3.97221C10.9539 3.78548 10.6726 3.56591 10.5809 3.2391V3.23895Z" fill="#372111"/>
<path d="M4.603 16.4988C2.09226 16.4988 0.0568981 14.2912 0.0568981 11.5681C0.0568981 8.84487 2.09226 6.6373 4.603 6.6373C7.11375 6.6373 9.14911 8.84487 9.14911 11.5681C9.14911 14.2912 7.11375 16.4988 4.603 16.4988Z" fill="#878787"/>
<path d="M5.15208 16.4988C2.64133 16.4988 0.605971 14.2912 0.605971 11.5681C0.605971 8.84487 2.64133 6.6373 5.15208 6.6373C7.66282 6.6373 9.69818 8.84487 9.69818 11.5681C9.69818 14.2912 7.66282 16.4988 5.15208 16.4988Z" fill="#575756"/>
<path d="M5.15189 13.59C4.12198 13.59 3.28706 12.6846 3.28706 11.5677C3.28706 10.4508 4.12198 9.54541 5.15189 9.54541C6.18181 9.54541 7.01672 10.4508 7.01672 11.5677C7.01672 12.6846 6.18181 13.59 5.15189 13.59Z" fill="#111010"/>
<path d="M10.3987 11.5092C10.3379 11.2288 10.3707 10.9229 10.5207 10.6781C10.5703 10.5973 10.6328 10.5217 10.6583 10.4304C10.6839 10.3391 10.6579 10.2232 10.571 10.1845C10.4914 10.1489 10.4012 10.1911 10.3185 10.2191C10.0537 10.3092 9.76422 10.2518 9.48481 10.264C9.32933 10.2707 9.13119 10.3532 9.15057 10.5073C9.15883 10.5732 9.2072 10.6255 9.24326 10.6811C9.38672 10.9029 9.3391 11.1928 9.39303 11.4512C9.42547 11.607 9.49563 11.7521 9.56578 11.895C9.81484 12.4023 10.0737 12.905 10.342 13.4024C10.3999 13.5099 10.514 13.6351 10.6197 13.5739C10.6541 13.554 10.6758 13.5182 10.6944 13.4831C10.8625 13.1671 10.9178 12.7909 10.8491 12.4398C10.7838 12.1053 10.4758 11.8635 10.399 11.5092H10.3987Z" fill="#BF9781"/>
<path d="M10.8048 10.108C9.51761 10.4709 8.22768 10.8347 6.98401 11.3264C6.54131 11.5014 6.09395 11.6953 5.61851 11.721C5.51696 11.7264 5.4091 11.7225 5.32347 11.6676C5.2033 11.5907 5.16154 11.4137 5.23454 11.2912C5.31115 11.1628 5.47249 11.1183 5.6179 11.0826C7.52374 10.6144 9.34366 9.79552 11.2856 9.51151C11.4205 9.49171 11.6076 9.51151 11.6247 9.64662C11.668 9.99047 11.0043 10.0517 10.8048 10.1079V10.108Z" fill="#111010"/>
<path d="M13.2129 8.60603C13.1747 8.71145 13.2268 8.83366 13.3131 8.90564C13.3993 8.97762 13.5124 9.00821 13.6234 9.02621C14.3066 9.13688 15.0061 8.90789 15.6882 8.79063C15.956 8.74459 16.2036 8.65866 16.4719 8.61503C16.8022 8.56134 17.1249 8.46987 17.4468 8.37869C18.1494 8.17955 18.852 7.98041 19.5547 7.78112C19.6528 7.75338 19.7628 7.71559 19.8039 7.62261C19.9935 7.19449 19.129 7.30321 18.9534 7.3257C18.486 7.38568 18.024 7.47851 17.5661 7.58872C16.6341 7.81306 15.7203 8.10652 14.7876 8.32816C14.522 8.39129 14.2551 8.44873 13.9864 8.49671C13.9057 8.51111 13.2283 8.56344 13.2129 8.60603Z" fill="#111010"/>
<path d="M11.0385 15.472C11.944 15.5152 12.7518 14.8168 13.1272 13.9929C13.5026 13.1689 13.5385 12.2372 13.5768 11.3329C13.6151 10.4285 13.6695 9.49441 14.0755 8.68511C13.217 8.7373 12.357 8.17428 12.0624 7.36738C11.9936 7.17901 11.9576 7.01043 11.9024 6.81756C11.8901 6.77466 11.8772 6.73027 11.8485 6.69607C11.757 6.58659 11.5718 6.64493 11.4737 6.74857C11.2817 6.95134 11.2559 7.2534 11.2111 7.52876C11.1223 8.07394 10.9053 8.62032 10.4888 8.98402C10.3404 9.11376 10.1627 9.22639 10.084 9.40697L10.609 9.45631C10.7866 9.47296 10.9751 9.49381 11.115 9.60434C11.3133 9.76092 11.3508 10.0522 11.2979 10.299C11.2451 10.5459 11.1202 10.7713 11.0489 11.0136C10.975 11.2643 10.9598 11.5281 10.9165 11.786C10.7876 12.5548 10.4073 13.294 10.4747 14.0706C10.5003 14.3653 10.5907 14.6513 10.7095 14.9223C10.7906 15.1071 10.9314 15.3009 11.0384 15.472H11.0385Z" fill="#D0A48C"/>
<path d="M14.0228 8.79086C14.3215 8.79716 14.6201 8.80346 14.9187 8.80976C15.2901 8.81756 15.667 8.82625 16.0227 8.93317C16.3792 9.04039 16.6988 9.24178 17.0132 9.44063C17.7582 9.91194 18.503 10.3831 19.2479 10.8544C20.177 11.4422 21.1088 12.032 21.9573 12.7307C22.3542 13.0574 22.755 13.4488 22.8319 13.9567C22.867 14.1887 22.8164 14.4523 22.6319 14.5978C22.5274 14.6801 22.3934 14.7147 22.2618 14.735C21.4685 14.8566 20.6743 14.524 19.992 14.102C19.3098 13.68 18.7647 13.1772 18.0299 12.855C17.994 13.254 17.5441 13.5413 17.1541 13.6364C16.7642 13.7315 16.3551 13.6622 15.9599 13.5928C15.5575 13.522 15.1552 13.4512 14.7527 13.3804C14.3046 13.3016 13.9838 12.8989 13.8119 12.4783C13.6949 12.1919 13.6567 11.8804 13.6198 11.5733C13.5618 11.0919 13.5038 10.6035 13.577 10.1243C13.6482 9.65791 13.8322 9.22289 14.0227 8.79116L14.0228 8.79086Z" fill="#D0A48C"/>
<path d="M18.8413 15.0356C18.9661 15.2076 19.0949 15.3888 19.1243 15.5992C19.1443 15.7418 19.1164 15.8868 19.0753 16.0248C18.9383 16.4847 18.6568 16.8896 18.3352 17.2462C18.0136 17.6028 17.6496 17.9184 17.3112 18.259C16.8727 18.7003 16.4575 19.1983 15.8848 19.4429C15.7633 19.4948 15.6213 19.5336 15.5019 19.4768C15.4417 19.4481 15.3947 19.3982 15.3491 19.3496C14.8174 18.7823 14.2624 18.2272 13.6111 17.8019C13.3822 17.6524 13.1397 17.5177 12.9462 17.3246C12.7527 17.1316 12.6109 16.8641 12.6447 16.5931C12.6886 16.2418 13.0017 15.9925 13.3016 15.8037C14.0319 15.3443 14.8325 15.0051 15.6509 14.7315C16.4358 14.4693 17.2864 14.2655 18.0839 14.4864C18.2298 14.5268 18.3741 14.4714 18.4779 14.5348C18.6142 14.618 18.7459 14.9043 18.8412 15.0355L18.8413 15.0356Z" fill="#D0A48C"/>
<path d="M16.5546 12.0176C16.4697 11.9514 16.3839 11.883 16.2831 11.8452C16.1832 11.8077 16.0742 11.8023 15.9675 11.807C15.6846 11.8192 15.4051 11.8998 15.1592 12.0398C15.0651 12.0934 14.9738 12.1577 14.914 12.2478C14.8714 12.3122 14.8467 12.3868 14.8321 12.4626C14.7573 12.8502 14.9469 13.2555 15.2421 13.5184C15.5373 13.7811 15.9236 13.92 16.3105 14.0022C16.6343 14.071 16.9759 14.1035 17.2933 14.0091C17.6106 13.9146 17.9336 13.4616 18.0058 13.139C18.094 12.7454 17.8534 12.8315 17.5756 12.653C17.2475 12.4423 16.8619 12.2577 16.5547 12.0178L16.5546 12.0176Z" fill="#BF9781"/>
<path d="M11.2356 5.80917C11.407 5.62772 11.7507 5.64961 11.8847 5.78862C12.0579 5.96842 12.0988 6.30912 12.0083 6.54155C11.8966 6.82857 11.6368 7.04316 11.545 7.33707C11.4252 7.72066 11.6167 8.15614 11.4722 8.53118C11.4249 8.65399 11.3443 8.76076 11.2628 8.86408C11.0675 9.11151 10.8603 9.34949 10.6422 9.57712C10.3757 9.85514 10.1756 9.9901 9.69839 9.96326C9.23316 9.93717 9.29099 9.59002 9.11118 9.25817C8.9931 9.04028 8.86992 8.9551 8.51661 8.89977C8.39238 8.88028 8.24381 8.87428 8.17996 8.78415C8.12048 8.70033 8.18447 8.54722 8.201 8.44585C8.23795 8.21912 8.08563 8.01083 7.95854 7.81933C7.58735 7.25955 7.37148 6.57424 7.47618 5.91114C7.58089 5.24803 8.04612 4.62556 8.69221 4.43946C8.92656 4.37198 9.17382 4.36179 9.41763 4.37018C9.62944 4.37738 9.84665 4.40002 10.0358 4.49555C10.2096 4.58342 10.3479 4.72693 10.4782 4.87164C10.746 5.16915 11.0068 5.48061 11.2354 5.80917H11.2356Z" fill="#D9AB91"/>
<path d="M12.7523 4.73755C12.9651 5.39556 12.7993 6.1065 12.7509 6.7963C12.7197 7.24122 12.7383 7.68794 12.7571 8.13361C12.4496 8.04829 12.2181 7.77837 12.1111 7.47815C12.0042 7.17794 11.7892 6.89662 11.918 6.63675C11.9908 6.48949 12.0544 6.30354 12.0351 6.14234C12.0076 5.91291 11.8729 5.67073 11.6096 5.68452C11.4918 5.69082 11.3851 5.74901 11.3025 5.83088C11.1958 5.93645 11.0893 6.07711 11.0278 6.21402C10.9599 6.36488 10.8594 6.50599 10.6834 6.53313C10.5757 6.54977 10.465 6.53733 10.36 6.51078C10.0766 6.43881 9.82389 6.2929 9.56596 6.16079C9.30954 6.02957 9.05612 5.89266 8.80585 5.75021C8.59629 5.63084 8.39635 5.54297 8.14819 5.5797C8.00578 5.60085 7.87013 5.65318 7.74259 5.71856C7.71525 5.73251 7.48677 5.89251 7.49323 5.79984C7.55422 4.92335 8.65082 3.55319 9.49911 3.31896C10.6614 2.99805 12.3491 3.49111 12.7524 4.73755H12.7523Z" fill="#432918"/>
<path d="M21.2339 28.7141C21.2912 28.8835 21.3297 29.0633 21.3079 29.2409C21.2861 29.4184 21.1969 29.5939 21.0446 29.6881C20.8307 29.8203 20.5409 29.7626 20.3366 29.6159C20.1323 29.4693 19.9945 29.25 19.862 29.0366C19.7518 28.8589 19.6414 28.6813 19.5311 28.5034C19.43 28.3405 19.3277 28.1751 19.2724 27.9916C19.217 27.8081 19.2131 27.6011 19.3041 27.4323C19.395 27.2639 19.5652 27.1557 19.7288 27.0559C19.9173 26.9409 20.1912 26.7844 20.4228 26.8476C20.6714 26.9152 20.5878 27.1476 20.6495 27.3703C20.7806 27.8433 21.0769 28.2506 21.2339 28.7139V28.7141Z" fill="#D0A48C"/>
<path d="M14.1147 8.64941C13.8611 9.60239 13.7761 10.5998 13.8649 11.5818C13.9059 12.0358 13.9927 12.5078 14.2753 12.8658C14.6355 13.3225 15.2405 13.5044 15.8151 13.598C16.2164 13.6634 16.6308 13.6979 17.0275 13.6084C17.4242 13.519 17.8046 13.2906 17.9999 12.9343C17.988 13.3861 18.1481 13.8197 18.3218 14.2371C18.3804 14.3776 18.4552 14.5213 18.585 14.6012C18.5675 14.5787 18.5503 14.5561 18.5328 14.5336C16.7999 15.8656 14.829 16.8131 12.6567 17.0662C12.6466 16.9043 12.428 16.7483 12.2712 16.7062C12.1144 16.6641 11.9484 16.6761 11.788 16.6512C11.6235 16.6258 11.4671 16.5621 11.32 16.4844C11.1772 16.4089 11.0408 16.3194 10.9233 16.2084C10.6287 15.9305 10.4699 15.5332 10.4085 15.1332C10.347 14.7332 10.3744 14.3256 10.4019 13.922C10.4522 13.1842 10.6661 12.4588 10.7928 11.7302C10.865 11.3143 11.0448 10.8801 11.2388 10.505C11.1285 11.3827 10.8817 12.2615 10.6451 13.1139C10.574 13.3696 10.497 13.6271 10.4875 13.8923C10.4848 13.9682 10.488 14.0456 10.513 14.1172C10.5506 14.2245 10.6349 14.31 10.7294 14.3734C11.1069 14.6266 11.6392 14.5427 12.0055 14.2735C12.3717 14.0043 12.5985 13.5865 12.7641 13.1635C13.1964 12.0588 13.1653 10.8202 13.3376 9.64678C13.3728 9.40771 13.4187 9.16279 13.5491 8.95942C13.6797 8.7559 13.8751 8.61747 14.115 8.64971L14.1147 8.64941Z" fill="url(#paint0_linear_93_1542)"/>
<path d="M17.9739 9.63299C18.6035 10.5582 19.2358 11.4882 19.7139 12.4999C19.9939 13.0923 20.3758 13.6049 20.8101 14.096C20.9774 14.2851 21.3297 14.5756 21.5993 14.663C22.0157 14.798 22.1936 14.7451 22.5416 14.6554C22.6109 14.6375 22.776 14.484 22.8146 14.4237C22.8455 14.3755 22.8457 14.3143 22.8428 14.2572C22.809 13.588 22.4937 12.9573 22.0725 12.4355C21.6513 11.9137 21.1266 11.4866 20.6061 11.0635C20.2185 10.7485 19.8309 10.4336 19.4434 10.1186C19.1088 9.84686 18.753 9.5406 18.6684 9.11841C18.6194 8.87394 18.8324 8.62722 18.8985 8.3868C18.9268 8.28407 18.9548 8.17338 18.9192 8.07289C18.8727 7.94151 18.7435 7.86622 18.6086 7.82978C18.191 7.71699 17.7215 7.81673 17.3861 8.08954C17.2622 8.19033 17.1486 8.33746 17.1768 8.49464C17.1925 8.58178 17.2497 8.65527 17.3074 8.72246C17.5543 9.01087 17.7603 9.31923 17.9739 9.63314V9.63299Z" fill="#D9AB91"/>
<path d="M12.9963 28.1738C13.072 28.3389 13.1492 28.5103 13.1504 28.6919C13.151 28.7924 13.1257 28.8968 13.0596 28.9725C12.9539 29.0938 12.7751 29.1139 12.6142 29.1199C12.1993 29.1357 11.7832 29.115 11.3719 29.0578C11.1921 29.0328 10.9961 28.9911 10.8846 28.848C10.8014 28.7411 10.7831 28.5985 10.7753 28.4634C10.7604 28.2062 10.7725 27.9474 10.8115 27.6928C10.8256 27.601 10.8439 27.5073 10.8932 27.4285C10.9468 27.3426 11.0329 27.2816 11.1226 27.2341C11.4122 27.0804 12.0973 26.9217 12.4137 27.07C12.6936 27.2012 12.8671 27.8922 12.9964 28.174L12.9963 28.1738Z" fill="#D0A48C"/>
<path d="M15.1625 18.7103C14.3776 18.0614 13.2888 17.9389 12.2699 17.9365C10.9809 17.9335 9.69017 18.0796 8.43929 18.3905C7.92404 18.5184 7.36417 18.7145 7.11315 19.1815C6.98696 19.4164 6.95767 19.6914 6.96518 19.9578C6.99598 21.0604 7.59971 22.0535 8.16334 23.0021C9.11047 24.5959 9.99512 26.2268 10.8147 27.8895C11.3085 27.8427 11.7955 27.7253 12.2562 27.5417C12.3615 27.4999 12.4706 27.4504 12.5365 27.3584C12.6866 27.1495 12.5415 26.8662 12.4252 26.6369C12.0697 25.9357 12.0052 25.1297 11.8301 24.3635C11.5944 23.3321 11.1476 22.3491 10.5249 21.4931C11.8191 21.709 12.9723 22.3792 14.2722 22.558C14.6338 22.6076 14.9998 22.6114 15.3649 22.6151C15.7036 22.6186 16.0425 22.622 16.3813 22.6253C16.5518 22.627 16.7277 22.6277 16.8851 22.5625C17.1393 22.4571 17.3005 22.1907 17.3419 21.9189C17.3832 21.6472 17.3218 21.37 17.2357 21.1089C16.8902 20.0611 16.0134 19.4135 15.1625 18.71V18.7103Z" fill="url(#paint1_linear_93_1542)"/>
<path d="M18.886 15.0941C19.3692 15.5554 19.8831 16.0343 20.5314 16.1972C20.7485 16.2518 20.9733 16.2684 21.1921 16.3155C21.9001 16.4682 22.5274 16.9571 22.8475 17.6058C23.0638 18.0442 23.1416 18.5378 23.1766 19.0254C23.2037 19.4029 23.2065 19.7859 23.126 20.1558C22.9743 20.8532 22.5151 21.4781 21.8945 21.8323C21.2738 22.1864 20.5015 22.2639 19.8227 22.0404C18.9971 21.7687 18.1366 21.7918 17.3238 21.4841C16.8458 21.3033 16.3595 21.0671 16.0666 20.6488C15.8964 20.4056 15.8038 20.1169 15.735 19.8284C15.6297 19.3859 15.5779 18.9063 15.7564 18.4878C16.0283 17.8501 16.7468 17.5355 17.4199 17.366C17.6398 17.3106 17.8701 17.2604 18.048 17.1199C18.1842 17.0122 18.2777 16.8603 18.36 16.7073C18.6362 16.1934 18.8084 15.672 18.886 15.0941Z" fill="url(#paint2_linear_93_1542)"/>
<path d="M17.9631 18.7911C18.4096 19.1992 18.7132 19.7363 19.001 20.2679C19.2547 20.7365 19.5032 21.2109 19.6735 21.7157C19.821 22.1527 19.9082 22.6073 19.9948 23.0603C20.1007 23.6139 20.2066 24.1676 20.3127 24.7212C20.4506 25.4418 20.5887 26.1631 20.6825 26.8908C20.6946 26.9841 20.7051 27.083 20.6662 27.1687C20.6292 27.2498 20.5538 27.3059 20.4793 27.3551C20.1165 27.5949 19.7045 27.7602 19.2763 27.8373C19.2221 27.847 19.164 27.855 19.1135 27.8326C19.0342 27.7974 19.004 27.7028 18.981 27.6191C18.7976 26.9553 18.5126 26.3193 18.139 25.7404C17.8503 25.293 17.5093 24.8798 17.238 24.4215C16.7293 23.5626 16.4834 22.5793 16.1741 21.6305C15.9132 20.8304 15.6035 20.0463 15.2471 19.2838C15.1052 18.9799 14.9527 18.6681 14.9422 18.333C14.9249 17.787 15.3038 17.2842 15.7843 17.0228C16.2649 16.7614 16.8301 16.7038 17.3774 16.7101C17.9246 16.7164 18.4721 16.7812 19.018 16.7428C19.7081 17.0171 20.614 16.8868 21.2331 17.2965C21.3115 17.3484 21.3908 17.4203 21.3947 17.514C21.4012 17.6665 21.219 17.7466 21.0703 17.7817C20.33 17.9567 19.5753 18.071 18.8164 18.1234C18.5813 18.1396 18.3284 18.1561 18.1449 18.3038C17.9613 18.4515 17.7892 18.6321 17.9631 18.7909V18.7911Z" fill="url(#paint3_linear_93_1542)"/>
<path d="M13.5305 28.9516C13.6479 29.1966 13.766 29.4505 13.7798 29.7219C13.7937 29.9933 13.678 30.2893 13.434 30.4099C13.2604 30.4957 13.0565 30.4802 12.863 30.4732C11.2272 30.413 9.60448 31.0862 7.9833 30.8605C7.87665 30.8457 7.76698 30.8256 7.677 30.7666C7.58702 30.7077 7.52062 30.6 7.54105 30.4945C7.57756 30.3063 7.82302 30.2647 8.01425 30.2479C9.06323 30.156 10.0475 29.5098 10.5476 28.5846C10.5719 28.5396 10.5956 28.4933 10.6314 28.4567C10.7256 28.3604 10.883 28.3541 11.0095 28.4006C11.136 28.4471 11.241 28.5363 11.3503 28.615C11.6077 28.8004 11.9114 28.9366 12.2287 28.9409C12.5459 28.9454 12.8754 28.8004 13.0387 28.5288C13.1474 28.348 13.1621 28.1635 13.303 28.3772C13.4035 28.5297 13.4483 28.78 13.5306 28.9514L13.5305 28.9516Z" fill="#111010"/>
<path d="M20.3485 28.3937C20.1589 28.1614 19.8175 28.0665 19.5348 28.1672C19.4469 28.1986 19.3613 28.2508 19.3168 28.3328C19.2686 28.422 19.2765 28.5294 19.279 28.6308C19.2895 29.0953 19.146 29.562 18.8762 29.9408C18.706 30.1797 18.4849 30.3887 18.3755 30.6607C18.266 30.9327 18.0749 31.3139 18.3327 31.4543C18.5112 31.5515 18.7383 31.5143 18.8194 31.5042C19.6877 31.3972 20.4903 30.9788 21.3367 30.741C21.5432 30.6829 21.7872 30.6595 21.9066 30.4815C22.0693 30.2389 21.8974 29.9225 21.7645 29.6625C21.5751 29.2922 21.4642 28.8822 21.4412 28.4672C21.4302 28.2683 21.3825 28.003 21.1834 27.9894C21.1571 27.9876 21.1291 27.9918 21.1083 28.0081C20.8632 28.2026 21.5728 29.0231 21.1526 29.2607C20.757 29.4846 20.4974 28.5922 20.3482 28.3938L20.3485 28.3937Z" fill="#111010"/>
<path d="M13.7516 30.6733C13.7396 30.7305 13.7236 30.7898 13.6831 30.8318C13.6216 30.8954 13.5232 30.9011 13.4348 30.9028C12.184 30.9259 10.9332 30.9491 9.68242 30.9722C9.43786 30.9767 9.19315 30.9812 8.94965 31.0026C8.55172 31.0374 8.17797 30.9983 7.80077 30.8669C7.64574 30.8129 7.49011 30.6151 7.54269 30.5811C7.57514 30.5601 7.63432 30.5852 7.67293 30.587C7.9932 30.6017 8.39504 30.724 8.71561 30.7294C9.65463 30.745 10.5639 30.3898 11.502 30.3439C11.8617 30.3263 12.2229 30.3545 12.5815 30.3223C12.9275 30.2912 13.2354 30.2079 13.5142 30.0041C14.0344 29.6236 13.8004 30.4433 13.7517 30.6736L13.7516 30.6733Z" fill="#878787"/>
<path d="M21.9737 30.5398C21.9751 30.6281 21.9755 30.7206 21.9343 30.7987C21.837 30.9833 21.5822 30.988 21.3791 31.0364C21.1721 31.0857 20.9887 31.2023 20.7958 31.2921C20.307 31.5199 19.7578 31.5753 19.2203 31.6211C18.9166 31.6469 18.5876 31.6647 18.3316 31.4993C18.2452 31.4435 18.1377 31.2934 18.2159 31.2267C18.2727 31.1783 18.3914 31.2329 18.4608 31.2601C18.8364 31.4081 19.354 31.3543 19.7779 31.2555C20.1712 31.1639 20.5062 30.9679 20.8667 30.7876C21.2101 30.6159 21.5415 30.5868 21.8363 30.3414C21.8782 30.3064 21.9153 30.2674 21.9587 30.2362C21.9817 30.3304 21.972 30.4403 21.9736 30.5398H21.9737Z" fill="#878787"/>
<path d="M17.724 7.14828C17.455 7.17527 17.1922 7.30813 17.0353 7.52797C16.8783 7.74766 16.8409 8.05507 16.9665 8.2941C16.9903 8.33939 17.0199 8.38257 17.0597 8.41496C17.1748 8.50824 17.3525 8.48784 17.4738 8.40252C17.5948 8.31704 17.6696 8.18118 17.7276 8.04502C17.7856 7.90886 17.8319 7.76595 17.9146 7.64299C17.9974 7.52017 18.1262 7.41685 18.2744 7.41011C18.3252 7.40786 18.4928 7.4257 18.4777 7.33213C18.4676 7.27035 18.3051 7.23121 18.2573 7.21501C18.0865 7.15713 17.9043 7.13029 17.7242 7.14843L17.724 7.14828Z" fill="#D0A48C"/>
<path d="M24.3348 12.4796C21.3083 12.4796 18.8549 9.82762 18.8549 6.55626C18.8549 3.2849 21.3083 0.632935 24.3348 0.632935C27.3612 0.632935 29.8146 3.2849 29.8146 6.55626C29.8146 9.82762 27.3612 12.4796 24.3348 12.4796Z" fill="#111010"/>
<path d="M24.9837 12.1908C21.9572 12.1908 19.5038 9.5388 19.5038 6.26744C19.5038 2.99608 21.9572 0.344116 24.9837 0.344116C28.0101 0.344116 30.4636 2.99608 30.4636 6.26744C30.4636 9.5388 28.0101 12.1908 24.9837 12.1908Z" fill="#575756"/>
<path d="M24.9837 11.0891C22.52 11.0891 20.5228 8.93032 20.5228 6.26727C20.5228 3.60423 22.52 1.4454 24.9837 1.4454C27.4474 1.4454 29.4446 3.60423 29.4446 6.26727C29.4446 8.93032 27.4474 11.0891 24.9837 11.0891Z" fill="#4A4A49"/>
<path d="M24.9833 8.31282C23.9379 8.31282 23.0904 7.39693 23.0904 6.26711C23.0904 5.1373 23.9379 4.22141 24.9833 4.22141C26.0287 4.22141 26.8762 5.1373 26.8762 6.26711C26.8762 7.39693 26.0287 8.31282 24.9833 8.31282Z" fill="#111010"/>
<path d="M29.8326 6.23509C30.1715 6.17196 30.5104 6.10882 30.8491 6.04584C31.1577 5.98841 31.4777 5.92678 31.7212 5.77787C31.9647 5.62896 32.1063 5.36579 31.9597 5.1608C31.7514 4.86973 31.1772 4.88773 30.7323 4.94816C29.0621 5.17504 27.3932 5.40583 25.7251 5.64051C25.6143 5.65611 25.5012 5.6723 25.4035 5.71324C25.041 5.86514 25.1007 6.44593 25.2737 6.63457C25.513 6.8955 26.6403 6.74689 27.2545 6.66681C28.1229 6.55375 28.9783 6.39404 29.8325 6.23494L29.8326 6.23509Z" fill="#878787"/>
<path d="M30.8994 5.51382C30.8261 5.19845 31.0228 4.8835 31.3387 4.81034C31.6547 4.73718 31.9702 4.93353 32.0435 5.2489C32.1167 5.56426 31.92 5.87922 31.6041 5.95238C31.2882 6.02553 30.9727 5.82918 30.8994 5.51382Z" fill="#A4A3A3"/>
<path d="M12.008 4.09784C12.0863 4.2451 12.1403 4.40375 12.1941 4.56166C12.3343 4.97374 12.4764 5.40501 12.4134 5.83554C12.3911 5.98834 12.3431 6.13815 12.3424 6.29246C12.3415 6.4937 12.4213 6.68729 12.4345 6.88808C12.4471 7.07868 12.3996 7.26927 12.4109 7.46002C12.4279 7.74703 12.5863 8.0225 12.8262 8.18161C12.9368 8.25494 13.0696 8.30517 13.201 8.28703C13.2946 8.27413 13.381 8.22734 13.454 8.16736C13.7456 7.92788 13.8168 7.511 13.8054 7.13416C13.7947 6.78386 13.7306 6.43731 13.6535 6.09526C13.515 5.48014 13.3298 4.86502 12.9876 4.33507C12.6452 3.80513 12.1273 3.3644 11.5105 3.22839C11.3816 3.20005 11.0021 3.13512 10.9055 3.27038C10.798 3.42109 11.1321 3.41344 11.2126 3.43683C11.5521 3.53535 11.8431 3.78803 12.0078 4.09784H12.008Z" fill="#372111"/>
<path d="M11.0907 3.30859C11.1882 3.35118 11.2929 3.40006 11.3425 3.49408C11.3485 3.50548 11.3536 3.51808 11.3519 3.53067C11.3474 3.56411 11.3034 3.57341 11.2696 3.57086C11.2083 3.56621 11.1485 3.54987 11.0893 3.53367C10.9613 3.49858 10.8332 3.46334 10.7075 3.42121C10.6575 3.40441 10.607 3.38612 10.5649 3.35447C10.5227 3.32283 10.4894 3.27575 10.4864 3.22311C10.4724 2.97853 10.9897 3.26465 11.0907 3.30859Z" fill="url(#paint4_linear_93_1542)"/>
<path d="M11.4622 3.71493C11.4888 3.75722 11.5172 3.79801 11.5468 3.8379C11.5764 3.87779 11.6065 3.91723 11.6386 3.95501C11.6711 3.99265 11.7055 4.02864 11.737 4.06703C11.7685 4.10527 11.7975 4.14561 11.8243 4.1873C11.8775 4.27082 11.9294 4.3545 11.9683 4.44402C11.9882 4.48841 12.0059 4.534 12.0184 4.58108C12.0311 4.62817 12.0388 4.67661 12.0428 4.72624H12.0459C12.0519 4.67676 12.0496 4.62592 12.0415 4.57613C12.0334 4.5262 12.017 4.47791 11.9978 4.43128C11.9783 4.38464 11.9527 4.34115 11.926 4.29871C11.8995 4.25613 11.8693 4.21624 11.8376 4.1777C11.8064 4.13886 11.7744 4.10077 11.7447 4.06103C11.7148 4.0213 11.6873 3.97991 11.6583 3.93957C11.6288 3.89953 11.5973 3.86129 11.5651 3.8235C11.533 3.78571 11.4998 3.74867 11.4648 3.71313L11.4624 3.71493H11.4622Z" fill="#523421"/>
<path d="M12.052 6.97957C12.0576 6.90294 12.0657 6.82707 12.0755 6.75134C12.0852 6.67561 12.0974 6.60033 12.1085 6.5246C12.1192 6.44888 12.1291 6.3727 12.1422 6.29727C12.1552 6.22169 12.171 6.14671 12.186 6.07129C12.2012 5.99601 12.2137 5.91998 12.2216 5.84335C12.2297 5.76672 12.2345 5.6895 12.2329 5.61212C12.2293 5.45796 12.2019 5.30171 12.1375 5.1615L12.1346 5.16255C12.1811 5.30891 12.1995 5.46081 12.2007 5.61257C12.2016 5.68845 12.1992 5.76462 12.1934 5.84065C12.1874 5.91668 12.1791 5.99256 12.1698 6.06859C12.1602 6.14446 12.1479 6.22019 12.1327 6.29532C12.1175 6.37045 12.0989 6.44498 12.0839 6.52041C12.0693 6.59583 12.0589 6.67216 12.0523 6.74879C12.0457 6.82542 12.0438 6.90264 12.049 6.97942H12.052V6.97957Z" fill="#523421"/>
<path d="M12.3131 7.65851C12.3137 7.63736 12.3134 7.61637 12.3126 7.59537C12.3122 7.57438 12.3113 7.55354 12.3101 7.53254C12.3092 7.5117 12.3078 7.4907 12.3062 7.46986C12.305 7.44902 12.303 7.42817 12.3006 7.40733C12.2955 7.36579 12.2888 7.32425 12.2855 7.28256C12.2841 7.26172 12.2832 7.24073 12.2829 7.21988C12.2826 7.19904 12.2837 7.17789 12.284 7.15705C12.2859 7.11521 12.2876 7.07338 12.2879 7.03154C12.2888 6.9897 12.2904 6.94801 12.2906 6.90617C12.2909 6.82265 12.2906 6.73897 12.2862 6.65485H12.2832C12.2685 6.73777 12.2613 6.8216 12.2584 6.90572C12.2581 6.92672 12.2577 6.94771 12.258 6.96871L12.2595 7.03169C12.2602 7.05268 12.261 7.07368 12.2622 7.09467C12.2635 7.11566 12.2656 7.13666 12.2673 7.1575C12.271 7.19934 12.2745 7.24118 12.2754 7.28316C12.276 7.30416 12.2757 7.32515 12.2754 7.34615V7.40928C12.2767 7.45127 12.2811 7.4931 12.2867 7.53479C12.2925 7.57648 12.2994 7.61787 12.3099 7.65896L12.3129 7.65866L12.3131 7.65851Z" fill="#523421"/>
<path d="M11.4329 3.98489C11.4511 4.01488 11.4699 4.04428 11.4888 4.07352C11.5065 4.10351 11.5246 4.1332 11.5429 4.16274C11.5599 4.19303 11.5771 4.22317 11.5947 4.25317C11.6108 4.28391 11.6275 4.31435 11.6447 4.34464L11.6939 4.43671C11.709 4.46805 11.7242 4.49939 11.7385 4.53133C11.7512 4.56372 11.7637 4.59627 11.7756 4.62911C11.7862 4.66225 11.7957 4.69584 11.8056 4.72913C11.814 4.76287 11.8219 4.79691 11.8309 4.83035C11.8381 4.86439 11.8454 4.89828 11.8532 4.93217L11.8719 5.03459C11.8765 5.06893 11.8819 5.10327 11.8872 5.13746C11.9064 5.27482 11.9165 5.41353 11.9196 5.55329H11.9227C11.9384 5.41428 11.9359 5.27272 11.9189 5.13326C11.9136 5.09847 11.9085 5.06383 11.9025 5.02919L11.8806 4.92617C11.872 4.89213 11.8629 4.85824 11.8537 4.82435C11.8433 4.79076 11.8319 4.75762 11.8211 4.72433C11.8091 4.69134 11.7963 4.6588 11.7849 4.62566C11.7718 4.59312 11.7594 4.56058 11.7473 4.52774C11.734 4.49549 11.7215 4.46265 11.709 4.42996L11.667 4.33339C11.6512 4.30205 11.6348 4.27101 11.6179 4.24027C11.5997 4.21028 11.5813 4.18029 11.5626 4.15059C11.5426 4.12165 11.5225 4.09301 11.5019 4.06452C11.48 4.03708 11.4579 4.00979 11.4352 3.98309L11.4328 3.98489H11.4329Z" fill="#523421"/>
<path d="M11.1067 3.56345C11.1181 3.59554 11.1304 3.62733 11.1429 3.65882C11.1543 3.69076 11.1663 3.72255 11.1785 3.75404C11.1896 3.78599 11.2011 3.81793 11.2129 3.84957C11.2234 3.88166 11.2346 3.9136 11.2465 3.94539L11.2803 4.04136C11.2907 4.0736 11.301 4.10599 11.3105 4.13853C11.3188 4.17137 11.3267 4.20436 11.3339 4.23751C11.3404 4.2708 11.3457 4.30439 11.3515 4.33783C11.3562 4.37142 11.3602 4.40516 11.3653 4.4386C11.3692 4.47219 11.373 4.50593 11.3774 4.53937L11.387 4.64044C11.3891 4.67418 11.3919 4.70792 11.3945 4.74166C11.4041 4.87662 11.4078 5.01188 11.4083 5.14804H11.4113C11.4298 5.01308 11.4337 4.87602 11.4265 4.73971C11.4238 4.70567 11.4214 4.67163 11.4181 4.63759L11.4053 4.53592C11.4002 4.50218 11.3945 4.46859 11.3888 4.43485C11.3823 4.40141 11.3746 4.36812 11.3676 4.33468C11.3596 4.30154 11.3512 4.26855 11.3439 4.23526C11.3353 4.20227 11.3273 4.16927 11.3198 4.13598C11.3113 4.10299 11.3037 4.06985 11.2962 4.03656L11.2701 3.93759C11.2599 3.90505 11.2492 3.87266 11.2376 3.84042C11.2253 3.80863 11.2129 3.77684 11.1999 3.74535C11.1861 3.71416 11.172 3.68312 11.1573 3.65222C11.1417 3.62193 11.1257 3.59164 11.1092 3.56195L11.1065 3.5633L11.1067 3.56345Z" fill="#523421"/>
<path d="M10.9356 3.70278C10.987 3.89292 11.0207 4.08607 11.0401 4.28116L11.0533 4.42767C11.0555 4.4767 11.0582 4.52574 11.0588 4.57493C11.0579 4.62396 11.0564 4.67315 11.0539 4.72218C11.0503 4.77122 11.0453 4.82011 11.0404 4.86884L11.0204 5.01475L10.9968 5.16006L10.9691 5.30461L10.9384 5.44842C10.8964 5.64007 10.846 5.83006 10.794 6.01991L10.7968 6.02081C10.867 5.83666 10.9245 5.64757 10.9696 5.45547C10.98 5.40719 10.9902 5.3589 10.9999 5.31061L11.0247 5.16471C11.0319 5.11582 11.0378 5.06678 11.0441 5.0179C11.0494 4.96886 11.0525 4.91953 11.0567 4.87049C11.0599 4.8213 11.0609 4.77197 11.0644 4.72278C11.066 4.6736 11.0663 4.62426 11.0684 4.57508C11.0687 4.52589 11.069 4.47655 11.0699 4.42722C11.0689 4.37788 11.0668 4.32855 11.065 4.27921C11.0504 4.08217 11.0093 3.88633 10.9385 3.70218L10.9356 3.70308V3.70278Z" fill="#523421"/>
<path d="M9.96092 3.36743C9.92187 3.37958 9.88311 3.39247 9.8442 3.40567C9.8062 3.42082 9.76834 3.43656 9.73064 3.45261C9.69368 3.47045 9.65703 3.4886 9.62038 3.50704C9.58462 3.52714 9.54917 3.54783 9.51417 3.56912L9.41307 3.63915C9.38062 3.6642 9.34833 3.68924 9.31543 3.71338C9.28373 3.73902 9.25173 3.76452 9.21929 3.78941C9.18834 3.81595 9.15649 3.84159 9.12495 3.86784C9.09475 3.89528 9.06396 3.92242 9.03407 3.95046C9.00537 3.9797 8.97668 4.00895 8.94829 4.03849L8.86747 4.13116C8.84209 4.16325 8.81715 4.19594 8.79221 4.22848C8.69652 4.36164 8.61615 4.50605 8.55727 4.65856L8.55997 4.65976C8.63598 4.5155 8.72146 4.37739 8.81805 4.24723C8.84269 4.21514 8.86762 4.1832 8.89181 4.15065L8.96932 4.05708C8.99681 4.02724 9.02385 3.9971 9.05104 3.96696C9.07973 3.93832 9.10767 3.90877 9.13607 3.87968C9.16596 3.85224 9.1954 3.82405 9.22575 3.79706C9.25714 3.77126 9.28914 3.74592 9.32129 3.72103C9.35464 3.69779 9.38859 3.67529 9.42253 3.6528L9.52724 3.59027C9.56284 3.57077 9.59814 3.55083 9.63314 3.53028C9.6692 3.51169 9.7051 3.4928 9.74085 3.47345C9.7775 3.45606 9.81416 3.43851 9.85051 3.42037C9.88777 3.40417 9.92502 3.38768 9.96198 3.37028L9.96092 3.36743Z" fill="#523421"/>
<path d="M9.10299 3.64489C9.06814 3.66769 9.03389 3.69138 8.99949 3.71522C8.96644 3.74057 8.93354 3.76636 8.90095 3.7923C8.8694 3.81959 8.8383 3.84734 8.80721 3.87523C8.77731 3.90432 8.74787 3.93401 8.71888 3.964L8.63701 4.05862C8.61117 4.09147 8.58548 4.12416 8.55889 4.15625C8.53366 4.18939 8.50827 4.22223 8.48228 4.25477C8.45795 4.28851 8.43241 4.32135 8.40747 4.35479C8.38389 4.38913 8.3597 4.42317 8.33642 4.45781C8.31449 4.49335 8.29255 4.52874 8.27107 4.56458L8.21098 4.6745C8.19251 4.71199 8.17478 4.74977 8.15676 4.78741C8.08931 4.94022 8.03748 5.09992 8.00623 5.26353L8.00909 5.26428C8.05866 5.10562 8.11695 4.95072 8.1859 4.80061C8.20362 4.76327 8.22165 4.72623 8.23892 4.68859L8.29571 4.57837C8.31629 4.54253 8.33642 4.50639 8.3567 4.47026C8.37863 4.43517 8.39951 4.39948 8.42099 4.36394C8.44413 4.3296 8.46666 4.29481 8.49039 4.26077C8.51533 4.22763 8.54072 4.19479 8.56641 4.16239C8.59359 4.13105 8.62154 4.10031 8.64948 4.06972L8.73675 3.98125C8.7668 3.95276 8.79639 3.92381 8.82538 3.89442C8.85588 3.86638 8.88607 3.83834 8.91612 3.8097C8.94736 3.78255 8.97846 3.75526 9.00925 3.72752C9.04125 3.70113 9.0731 3.67459 9.10449 3.64714L9.10269 3.64474L9.10299 3.64489Z" fill="#523421"/>
<path d="M7.91285 4.88687C7.89528 4.90472 7.8807 4.92451 7.86688 4.94475C7.85351 4.9653 7.84104 4.98644 7.83128 5.00894C7.82182 5.03158 7.81551 5.05572 7.80589 5.07807C7.79658 5.10056 7.78531 5.12215 7.77315 5.1436C7.76729 5.15439 7.76113 5.16504 7.75572 5.17599C7.75031 5.18693 7.74536 5.19818 7.7404 5.20943C7.73063 5.23192 7.72162 5.25471 7.71411 5.27811C7.69984 5.32504 7.68947 5.37318 7.68692 5.42282L7.68977 5.42357C7.71096 5.37888 7.72778 5.33359 7.74445 5.2883C7.75242 5.26551 7.75963 5.24257 7.76699 5.21947C7.7748 5.19668 7.78171 5.17344 7.78832 5.14989C7.79523 5.1265 7.80364 5.10371 7.81476 5.08211C7.82587 5.06052 7.8409 5.04088 7.85351 5.02033C7.85997 5.00999 7.86583 4.99949 7.87109 4.98869C7.87665 4.97804 7.88206 4.96725 7.88716 4.95615C7.89242 4.9452 7.89753 4.93426 7.90219 4.92286C7.90714 4.91176 7.91165 4.90037 7.91541 4.88837L7.91285 4.88687Z" fill="#523421"/>
<path d="M10.6151 3.65823C10.6128 3.84613 10.6057 4.03298 10.593 4.21967L10.5837 4.35988C10.5793 4.40652 10.5748 4.45315 10.5694 4.49979C10.5626 4.54613 10.5548 4.59246 10.547 4.63865C10.5381 4.68469 10.5276 4.73042 10.518 4.77616C10.5068 4.8216 10.4949 4.86703 10.4841 4.91247C10.4717 4.95761 10.4593 5.00274 10.4476 5.04803L10.4076 5.18254C10.3929 5.22693 10.3789 5.27162 10.3646 5.31615C10.3065 5.494 10.2397 5.66885 10.1671 5.8422L10.1698 5.84355C10.2595 5.6783 10.3337 5.5045 10.395 5.32635C10.4093 5.28151 10.4238 5.23668 10.4375 5.19169L10.4748 5.05553C10.486 5.00979 10.4965 4.96391 10.5072 4.91817C10.5167 4.87213 10.5251 4.8258 10.5341 4.77961C10.5419 4.73327 10.5488 4.68679 10.5574 4.6406C10.5643 4.59411 10.571 4.54763 10.579 4.50144C10.5855 4.45495 10.5928 4.40847 10.6003 4.36213L10.6181 4.22207C10.6358 4.03477 10.6361 3.84568 10.6181 3.65853H10.6151V3.65823Z" fill="#523421"/>
<path d="M10.1976 3.461C10.0299 3.57062 9.87641 3.70258 9.74166 3.85119L9.64492 3.96635C9.61457 4.00624 9.58438 4.04613 9.55328 4.08527C9.52414 4.12591 9.4941 4.16594 9.4642 4.20598C9.43641 4.24752 9.40712 4.28816 9.37858 4.3294C9.35184 4.37168 9.3245 4.41367 9.29806 4.45626L9.22475 4.58762L9.1582 4.72258C9.13808 4.76847 9.1187 4.81481 9.09902 4.86099C9.02631 5.04799 8.97298 5.24278 8.94549 5.44087L8.9485 5.44147C8.99476 5.24713 9.0541 5.05699 9.12891 4.87284C9.14829 4.8271 9.16797 4.78152 9.1869 4.73548L9.25014 4.60052L9.31909 4.46826C9.34418 4.42522 9.36821 4.38173 9.39285 4.33839C9.41959 4.29641 9.44557 4.25382 9.47322 4.21228C9.50236 4.17179 9.53135 4.1313 9.56139 4.09142C9.59309 4.05288 9.62554 4.01509 9.65814 3.9773L9.76044 3.86843C9.89789 3.72447 10.0442 3.58951 10.1998 3.4637L10.198 3.4613L10.1976 3.461Z" fill="#523421"/>
<path d="M10.2004 4.1578C10.1756 4.19409 10.1516 4.23083 10.1277 4.26772C10.1049 4.30521 10.0823 4.343 10.0601 4.38094C10.0388 4.41933 10.0178 4.45802 9.99702 4.49671C9.97704 4.53584 9.95782 4.57528 9.93904 4.61502L9.88691 4.73604C9.87069 4.77682 9.85431 4.81761 9.83719 4.85795C9.82097 4.89874 9.80429 4.93923 9.78702 4.97957C9.77094 5.02035 9.75367 5.06069 9.73699 5.10148C9.72122 5.14242 9.7047 5.18321 9.68937 5.22444C9.6748 5.26583 9.66023 5.30737 9.64611 5.34891L9.6066 5.47472C9.59443 5.51701 9.58287 5.5593 9.57115 5.60174C9.52774 5.77209 9.49484 5.94529 9.47636 6.11984L9.47937 6.12029C9.51662 5.94873 9.55658 5.77853 9.60225 5.60983C9.61381 5.5677 9.62568 5.52571 9.6368 5.48342L9.6733 5.35746C9.68667 5.31577 9.69929 5.27393 9.71221 5.23209C9.72618 5.1907 9.7391 5.14887 9.75262 5.10718C9.76734 5.06594 9.78131 5.0244 9.79663 4.98346C9.8127 4.94268 9.82923 4.90219 9.84635 4.86185C9.86438 4.82196 9.88331 4.78237 9.90238 4.74293L9.96172 4.62582C9.982 4.58713 10.0018 4.54814 10.0209 4.5087C10.041 4.46986 10.0612 4.43102 10.0807 4.39189L10.2031 4.15915L10.2006 4.15765L10.2004 4.1578Z" fill="#523421"/>
<path d="M10.2931 6.4479C10.3122 6.4173 10.3305 6.38611 10.3487 6.35492C10.3658 6.32313 10.3825 6.29119 10.3989 6.25895C10.4143 6.22641 10.4295 6.19357 10.4444 6.16058C10.4585 6.12729 10.4719 6.0937 10.4846 6.05996L10.5187 5.95709C10.529 5.92245 10.5392 5.88781 10.5503 5.85362C10.5605 5.81913 10.5712 5.78464 10.5823 5.75045C10.5922 5.71581 10.6035 5.68162 10.614 5.64698C10.6238 5.61219 10.634 5.5777 10.6433 5.54276C10.6517 5.50767 10.6601 5.47258 10.6679 5.43734L10.6888 5.33102C10.6948 5.29533 10.6999 5.25964 10.7053 5.22395C10.7235 5.08059 10.7307 4.93573 10.7232 4.79163H10.7202C10.7086 4.93528 10.6941 5.07789 10.6735 5.2196C10.6681 5.25499 10.6625 5.29038 10.6577 5.32592L10.64 5.43194C10.6329 5.46703 10.6263 5.50227 10.6197 5.53751C10.6119 5.57245 10.6051 5.60769 10.5978 5.64293C10.5892 5.67772 10.5812 5.71281 10.5721 5.7476C10.5622 5.78209 10.5515 5.81643 10.5405 5.85062C10.5285 5.88451 10.5154 5.91795 10.5025 5.95154L10.4609 6.05081C10.4465 6.08365 10.4327 6.11664 10.4195 6.15008C10.4052 6.18292 10.3911 6.21591 10.3772 6.24905L10.29 6.44625L10.2927 6.4476L10.2931 6.4479Z" fill="#523421"/>
<path d="M11.262 5.73179C11.2713 5.71274 11.2771 5.69295 11.2821 5.673C11.2866 5.65306 11.2907 5.63282 11.2913 5.61227C11.2919 5.59173 11.2892 5.57088 11.2902 5.55049C11.2911 5.5301 11.2941 5.50985 11.2982 5.48976C11.3 5.47971 11.3022 5.46951 11.3036 5.45932C11.3051 5.44912 11.306 5.43892 11.3069 5.42872C11.3085 5.40833 11.3102 5.38779 11.3097 5.36724C11.3084 5.3263 11.3037 5.28522 11.2917 5.24518H11.2887C11.2813 5.28642 11.2791 5.3269 11.2776 5.36724C11.277 5.38749 11.2779 5.40758 11.2785 5.42783C11.2785 5.44807 11.2798 5.46831 11.2816 5.48871C11.2832 5.5091 11.2832 5.5295 11.2804 5.54959C11.2776 5.56968 11.2707 5.58933 11.2665 5.60927C11.2642 5.61917 11.2626 5.62922 11.2618 5.63926C11.2606 5.64931 11.2597 5.65936 11.2591 5.66956C11.2579 5.6898 11.257 5.71019 11.2591 5.73119L11.2621 5.73179H11.262Z" fill="#523421"/>
<path d="M9.15022 5.81196C9.16089 5.76907 9.17065 5.72618 9.18012 5.68315C9.19108 5.64041 9.20145 5.59782 9.21151 5.55493C9.22308 5.5125 9.23419 5.47006 9.24516 5.42747C9.25763 5.38533 9.2695 5.34304 9.28061 5.30061L9.31712 5.17389C9.33049 5.13206 9.344 5.09007 9.35843 5.04853C9.3742 5.00744 9.39042 4.9665 9.40725 4.92587C9.42512 4.88568 9.4442 4.84594 9.46268 4.80605C9.48266 4.76676 9.50309 4.72777 9.52247 4.68848C9.54335 4.6498 9.56438 4.61111 9.58481 4.57227L9.65015 4.45785C9.67329 4.42051 9.69567 4.38272 9.71835 4.34508C9.81014 4.19528 9.90973 4.05027 10.0146 3.90826L10.0123 3.90631C9.89261 4.03632 9.7858 4.17848 9.69116 4.32814C9.66833 4.36608 9.6455 4.40387 9.62311 4.44211L9.55987 4.55877C9.53989 4.59821 9.52051 4.6381 9.50113 4.67769C9.48281 4.71788 9.46553 4.75866 9.44766 4.799C9.43098 4.83994 9.41491 4.88103 9.39778 4.92167C9.38216 4.9629 9.36594 5.00399 9.34926 5.04478C9.33394 5.08617 9.31757 5.12726 9.30119 5.1682L9.25658 5.29311C9.24351 5.3354 9.23104 5.37783 9.21932 5.42042C9.20881 5.46331 9.19859 5.50635 9.18868 5.54953C9.18012 5.59287 9.172 5.63636 9.16434 5.67985C9.15818 5.72363 9.15218 5.76742 9.14722 5.81121L9.15022 5.81166V5.81196Z" fill="#523421"/>
<path d="M9.40284 3.8919C9.38466 3.9126 9.36724 3.93404 9.35011 3.95549C9.33329 3.97723 9.31706 3.99942 9.30099 4.02177C9.28522 4.04441 9.26989 4.0672 9.25472 4.09015C9.23985 4.11339 9.22573 4.13693 9.21191 4.16078L9.17345 4.23381C9.16128 4.25855 9.14897 4.28314 9.1359 4.30728C9.12328 4.33173 9.11021 4.35587 9.09669 4.37971C9.08377 4.40401 9.0698 4.42755 9.05628 4.45154C9.04321 4.47569 9.02939 4.49953 9.01677 4.52397C9.0043 4.54856 8.99199 4.57301 8.97997 4.5979L8.94527 4.67288C8.93415 4.69807 8.92379 4.72356 8.91312 4.74891C8.87301 4.85148 8.83921 4.95645 8.81548 5.06396L8.81833 5.06486C8.86024 4.96319 8.90065 4.86167 8.94286 4.7609L9.00566 4.60945L9.07085 4.45874C9.08242 4.434 9.09338 4.4088 9.10555 4.38421C9.11802 4.35977 9.13094 4.33563 9.14431 4.31178C9.17195 4.2644 9.20305 4.21926 9.23309 4.17352C9.24826 4.15073 9.26283 4.12764 9.27695 4.10424C9.29153 4.08115 9.3061 4.05791 9.32007 4.03451C9.33464 4.01142 9.34906 3.98818 9.36303 3.96448C9.37745 3.94109 9.39157 3.9177 9.40509 3.89355L9.40269 3.89175L9.40284 3.8919Z" fill="#523421"/>
<path d="M8.3532 4.82373C8.34088 4.84667 8.33171 4.87067 8.32345 4.89496C8.31549 4.91925 8.30843 4.94385 8.30423 4.96904C8.30017 4.99438 8.29942 5.02032 8.29491 5.04537C8.29055 5.07056 8.28409 5.09515 8.27643 5.11959C8.27283 5.13189 8.26892 5.14419 8.26562 5.15648C8.26231 5.16893 8.25961 5.18138 8.25691 5.19382C8.2515 5.21887 8.24654 5.24391 8.24309 5.26925C8.23693 5.31994 8.23392 5.37122 8.23813 5.42281L8.24113 5.42311C8.25615 5.37347 8.26592 5.32384 8.27478 5.2739C8.27884 5.24886 8.28199 5.22381 8.285 5.19862C8.28845 5.17358 8.29086 5.14824 8.29266 5.12274C8.29476 5.09725 8.29822 5.07206 8.30452 5.04747C8.31068 5.02272 8.32105 4.99903 8.32871 4.97489C8.33262 4.96274 8.33592 4.95059 8.33847 4.93815C8.34133 4.92585 8.34403 4.9134 8.34614 4.90081C8.35064 4.87577 8.35485 4.85072 8.3562 4.82463L8.35335 4.82388L8.3532 4.82373Z" fill="#523421"/>
<path d="M8.69287 5.00116C8.68506 5.00401 8.6801 5.00821 8.67559 5.01271C8.67154 5.01735 8.66763 5.0223 8.66673 5.02845C8.66568 5.03475 8.66733 5.04225 8.66538 5.0481C8.66358 5.05394 8.65937 5.05859 8.65426 5.06279C8.64885 5.06684 8.6442 5.07119 8.64074 5.07629C8.63699 5.08109 8.63323 5.08604 8.63098 5.09158C8.62677 5.10298 8.62452 5.11543 8.62767 5.13042L8.63038 5.13177C8.64435 5.12532 8.65306 5.11618 8.65967 5.10598C8.66282 5.10088 8.66448 5.09488 8.66613 5.08903C8.66808 5.08334 8.66883 5.07689 8.66898 5.07014C8.66913 5.06354 8.67049 5.05739 8.67409 5.05244C8.6777 5.0475 8.68461 5.0442 8.68911 5.0397C8.69362 5.0352 8.69512 5.0292 8.69647 5.0232C8.69738 5.01691 8.69798 5.01046 8.69557 5.00251L8.69287 5.00116Z" fill="#523421"/>
<path d="M10.556 3.54636C10.5455 3.59164 10.5359 3.63723 10.5265 3.68267C10.5168 3.7281 10.5076 3.77354 10.4986 3.81913C10.4891 3.86456 10.4801 3.91015 10.4713 3.95574C10.4618 4.00117 10.4531 4.04676 10.445 4.0925C10.4285 4.18382 10.4134 4.2756 10.3944 4.36647C10.3844 4.41176 10.3741 4.45704 10.3631 4.50218C10.3518 4.54732 10.3395 4.592 10.3277 4.63699L10.2533 4.90541L10.1776 5.17338C10.1277 5.35213 10.0768 5.53073 10.0278 5.71023L10.0307 5.71113C10.0977 5.53748 10.156 5.36068 10.2084 5.18223C10.221 5.1374 10.2338 5.09271 10.2458 5.04787L10.2806 4.91276L10.3135 4.7772C10.3242 4.73191 10.3337 4.68633 10.3437 4.64104C10.3535 4.5956 10.3627 4.55002 10.3732 4.50473C10.3829 4.45929 10.3933 4.414 10.404 4.36872C10.4143 4.32343 10.4257 4.27829 10.4372 4.23331L10.4696 4.0976C10.4897 4.00672 10.5064 3.91525 10.5216 3.82348C10.5289 3.77759 10.5359 3.73155 10.5425 3.68552C10.5485 3.63933 10.5542 3.59329 10.5591 3.54696L10.5561 3.54651L10.556 3.54636Z" fill="#523421"/>
<path d="M10.6748 2.93713C10.7487 2.80637 10.8321 2.68145 10.9273 2.56614C11.0219 2.45052 11.1296 2.346 11.2464 2.25318C11.3625 2.1596 11.492 2.08133 11.6314 2.02599C11.7706 1.97066 11.9201 1.94157 12.0696 1.93752C12.3684 1.93047 12.669 2.0128 12.9146 2.1812C13.1618 2.34675 13.3553 2.59043 13.4641 2.8701L13.4669 2.86905C13.3759 2.58188 13.1838 2.32621 12.9326 2.15481C12.8696 2.11222 12.8035 2.07413 12.7341 2.04279C12.6647 2.01175 12.5929 1.98626 12.5196 1.96646C12.3732 1.92612 12.2199 1.91233 12.069 1.92117C11.918 1.93062 11.7688 1.96301 11.6279 2.017C11.487 2.07038 11.352 2.14191 11.2312 2.23338C10.9892 2.41648 10.8011 2.66451 10.6722 2.93578L10.6749 2.93713H10.6748Z" fill="#523421"/>
<path d="M11.0562 2.95644C11.1836 2.91115 11.3132 2.87231 11.445 2.84382C11.5766 2.81488 11.7109 2.79839 11.8452 2.79614C11.9795 2.79374 12.114 2.80768 12.2437 2.84142C12.3732 2.87501 12.4988 2.92555 12.6114 2.99783C12.7244 3.06936 12.8228 3.16308 12.9029 3.27075C12.9825 3.37887 13.0448 3.49958 13.0915 3.62585C13.115 3.68898 13.1355 3.75316 13.1524 3.81839C13.1698 3.88347 13.1824 3.94975 13.1949 4.01603C13.2185 4.14874 13.2317 4.28311 13.2405 4.41762C13.2574 4.68679 13.2539 4.95671 13.2605 5.22693C13.2634 5.36204 13.2701 5.4973 13.2798 5.63226L13.2889 5.73333L13.2939 5.78387L13.3 5.83426C13.3042 5.86785 13.308 5.90144 13.3125 5.93503L13.3277 6.0355C13.3496 6.16911 13.3745 6.30242 13.4101 6.43333C13.4262 6.49916 13.4474 6.56364 13.4668 6.62858C13.4773 6.66082 13.489 6.69261 13.5001 6.72455L13.517 6.77253L13.5359 6.81977C13.5488 6.85111 13.5608 6.88275 13.5743 6.91379L13.6173 7.00587C13.631 7.03691 13.6476 7.06645 13.6634 7.09644L13.6873 7.14128L13.6992 7.16362L13.7124 7.18536L13.7651 7.27219C13.7735 7.28689 13.7837 7.30038 13.7934 7.31448L13.8223 7.35616L13.8513 7.39785C13.8611 7.41165 13.8721 7.42455 13.8824 7.43804L13.9452 7.51767L13.9476 7.51572L13.8874 7.43429C13.8775 7.42065 13.867 7.40745 13.8578 7.39335L13.8303 7.35092L13.8028 7.30848C13.7938 7.29423 13.784 7.28044 13.7761 7.26559L13.7258 7.17802C13.6619 7.05955 13.6041 6.93764 13.5578 6.81122L13.5396 6.76414L13.5236 6.7163C13.513 6.68436 13.5018 6.65272 13.4917 6.62063C13.4732 6.556 13.4531 6.49182 13.4381 6.42613C13.4211 6.36105 13.4074 6.29522 13.3935 6.22939C13.3861 6.19655 13.3812 6.16326 13.375 6.13027C13.3691 6.09713 13.3627 6.06414 13.3583 6.0307C13.3367 5.89784 13.3238 5.76378 13.311 5.62972C13.3003 5.4955 13.2927 5.36099 13.2888 5.22618C13.2805 4.95671 13.2798 4.68604 13.2569 4.41642C13.2342 4.14739 13.1937 3.87732 13.1013 3.62225C13.0785 3.55852 13.0511 3.49628 13.0205 3.43585C12.99 3.37527 12.9556 3.31664 12.9164 3.261C12.8375 3.15033 12.7394 3.05196 12.6249 2.97698C12.51 2.90291 12.3825 2.84877 12.2501 2.81593C12.1177 2.78264 11.9807 2.76959 11.8446 2.77319C11.5716 2.78054 11.3056 2.85312 11.055 2.95374L11.056 2.95659L11.0562 2.95644Z" fill="#523421"/>
<path d="M13.0988 2.00785C13.1937 2.07968 13.285 2.15601 13.3717 2.23713C13.4584 2.31811 13.5403 2.40434 13.6149 2.49626C13.6897 2.58803 13.7578 2.68521 13.8164 2.78778C13.8303 2.81372 13.8457 2.83906 13.8587 2.8656C13.8716 2.89215 13.885 2.91839 13.8978 2.94508L13.9323 3.02666C13.9431 3.0541 13.9522 3.08214 13.9622 3.10988L13.9696 3.13073L13.9757 3.15202L13.9881 3.19461C13.992 3.20885 13.9969 3.2228 13.9998 3.23735L14.0092 3.28053L14.0187 3.32387C14.0216 3.33842 14.0235 3.35296 14.0261 3.36751C14.0313 3.3966 14.0337 3.42614 14.0376 3.45538C14.0429 3.51432 14.0466 3.57355 14.0469 3.63278C14.0471 3.69201 14.0453 3.7514 14.0414 3.81063C14.0346 3.92924 14.0195 4.04711 14.0041 4.16498C13.989 4.28284 13.9717 4.40071 13.9592 4.51902C13.9326 4.75551 13.9179 4.99394 13.9227 5.23252C13.9274 5.47095 13.9502 5.70983 14.0019 5.94331C14.0525 6.17679 14.1317 6.40458 14.2401 6.61752C14.3487 6.83015 14.4887 7.02765 14.6594 7.19425L14.6615 7.19215C14.4978 7.01925 14.3648 6.81981 14.2612 6.60702C14.209 6.5007 14.1644 6.39078 14.1267 6.27861C14.0892 6.16645 14.057 6.05233 14.0322 5.93656C14.007 5.82095 13.9893 5.70368 13.9757 5.58611C13.9622 5.4684 13.9543 5.35008 13.951 5.23162C13.9444 4.99454 13.9549 4.757 13.9756 4.52037C13.9957 4.28359 14.0342 4.04846 14.0519 3.81093C14.0605 3.69216 14.0629 3.57265 14.0545 3.45343C14.0513 3.42374 14.0495 3.3939 14.045 3.36421C14.0429 3.34936 14.0412 3.33452 14.0387 3.31982L14.0301 3.27573L14.0216 3.23165C14.0189 3.21695 14.0142 3.20256 14.0107 3.18801L13.9993 3.14452L13.9936 3.12278L13.9864 3.10148C13.9143 2.87205 13.7856 2.66451 13.6332 2.48096C13.4791 2.29787 13.2972 2.13981 13.1012 2.00485L13.0994 2.00725L13.0988 2.00785Z" fill="#523421"/>
<path d="M13.6262 8.08341C13.4558 8.00408 13.2951 7.90751 13.1513 7.7889C13.115 7.7598 13.0801 7.72876 13.0465 7.69652C13.0298 7.68018 13.0139 7.66323 12.9975 7.64644C12.9823 7.62874 12.9667 7.61135 12.952 7.59305C12.8937 7.51987 12.8465 7.43815 12.8099 7.35252C12.7734 7.26675 12.7459 7.17752 12.7248 7.08695C12.7043 6.99622 12.6912 6.90385 12.6813 6.81118C12.6608 6.62568 12.6575 6.43824 12.6494 6.25064H12.6464C12.6355 6.43794 12.6319 6.62643 12.6494 6.81448C12.6684 7.00177 12.7098 7.19012 12.7948 7.35942C12.8043 7.38101 12.8169 7.40126 12.8279 7.42195C12.8389 7.4428 12.8516 7.46259 12.8638 7.48283C12.8884 7.52302 12.9162 7.56111 12.9443 7.5989C13.0009 7.67418 13.0645 7.74466 13.1352 7.80779C13.2063 7.87047 13.2849 7.92431 13.367 7.97079C13.4495 8.01698 13.5359 8.05612 13.6251 8.08611L13.6262 8.08326V8.08341Z" fill="#523421"/>
<path d="M13.2037 7.18079C13.1436 7.05617 13.1024 6.92406 13.079 6.78865C13.0553 6.65324 13.0465 6.51588 13.0432 6.37807C13.0393 6.24026 13.0405 6.102 13.0446 5.96389C13.0489 5.82578 13.0553 5.68752 13.055 5.54896C13.0542 5.41055 13.0461 5.27109 13.0185 5.13433C12.9916 4.99772 12.9515 4.86336 12.8951 4.73575C12.8388 4.60828 12.7686 4.48697 12.6866 4.3745C12.6037 4.26278 12.5092 4.15976 12.4039 4.06949L12.4018 4.07174C12.5002 4.16906 12.5893 4.27478 12.6674 4.38815C12.7455 4.50136 12.811 4.62283 12.8657 4.74849C12.8793 4.77998 12.8917 4.81192 12.9043 4.84386L12.9214 4.8923L12.9301 4.91644L12.9379 4.94104L12.9533 4.99007C12.9584 5.00642 12.9623 5.02321 12.9668 5.03971C12.9762 5.0727 12.9833 5.10629 12.9907 5.13973C13.0195 5.27394 13.0318 5.41145 13.0383 5.54911C13.0437 5.68692 13.0408 5.82533 13.0347 5.96329L13.024 6.17053C13.0209 6.23966 13.0183 6.30894 13.018 6.37822C13.0177 6.51678 13.0285 6.65624 13.0559 6.79285C13.0838 6.92916 13.1307 7.06232 13.2007 7.18199L13.2034 7.18064L13.2037 7.18079Z" fill="#523421"/>
<path d="M12.7683 5.6347C12.7694 5.55597 12.7625 5.47694 12.7494 5.39911C12.7363 5.32129 12.7176 5.24421 12.6925 5.16938C12.6669 5.0947 12.6354 5.02227 12.6039 4.95029C12.5723 4.87832 12.5403 4.80649 12.5064 4.73541C12.4727 4.66418 12.4358 4.5946 12.3961 4.52652C12.3564 4.45844 12.3153 4.39141 12.2714 4.32588C12.1835 4.19526 12.089 4.06945 11.9902 3.94724L11.9878 3.94903C12.0713 4.08235 12.1594 4.21221 12.2447 4.34357C12.2875 4.4091 12.3306 4.47448 12.3718 4.54106C12.4128 4.60764 12.4532 4.67482 12.4918 4.7429C12.5301 4.81113 12.5655 4.88131 12.5948 4.95404C12.6243 5.02662 12.6474 5.10175 12.6686 5.17673C12.6902 5.25171 12.7104 5.32699 12.7266 5.40331C12.7428 5.47964 12.7557 5.55672 12.7655 5.6347H12.7685H12.7683Z" fill="#523421"/>
<path d="M11.436 3.28596C11.4486 3.27201 11.4647 3.26227 11.482 3.25672C11.4994 3.25132 11.5179 3.25012 11.5362 3.25027C11.5732 3.25087 11.6094 3.25942 11.6466 3.26737C11.7207 3.28326 11.7943 3.30021 11.8678 3.3182C11.9412 3.33575 12.0148 3.35434 12.0859 3.38058C12.1569 3.40683 12.2254 3.43997 12.2899 3.47925C12.3542 3.51884 12.4155 3.56263 12.4724 3.61152C12.5292 3.6604 12.581 3.71484 12.6276 3.77317C12.7204 3.88999 12.7895 4.02645 12.819 4.1755L12.822 4.17505C12.8116 4.02255 12.7467 3.87514 12.6528 3.75338C12.5574 3.63221 12.4341 3.53429 12.298 3.46486C12.2301 3.42962 12.1599 3.39993 12.0895 3.37144C12.0189 3.34309 11.9474 3.31595 11.8742 3.29406C11.8009 3.27261 11.7261 3.25732 11.651 3.24457C11.6137 3.23827 11.575 3.23153 11.5358 3.23438C11.5162 3.23558 11.4966 3.23932 11.4784 3.24727C11.4602 3.25522 11.444 3.26782 11.4336 3.28416L11.436 3.28596Z" fill="#523421"/>
<path d="M13.4214 3.19943C13.5007 3.3011 13.5479 3.42257 13.5746 3.54703C13.5884 3.60926 13.5978 3.67254 13.6045 3.73613C13.6078 3.76792 13.6095 3.80001 13.6122 3.8318L13.6161 3.87963C13.6176 3.89553 13.6189 3.91158 13.6192 3.92762C13.6213 3.99165 13.6265 4.05568 13.6254 4.12001L13.6259 4.21644L13.6222 4.31286C13.6167 4.44137 13.6029 4.56943 13.5883 4.6972C13.5728 4.82496 13.5571 4.95272 13.5449 5.08109C13.5381 5.14512 13.5333 5.20945 13.5282 5.27378C13.5252 5.30587 13.5239 5.33811 13.5225 5.37035L13.5181 5.46707C13.5129 5.72485 13.5336 5.98637 13.6074 6.23395L13.6102 6.2332C13.5551 5.98143 13.542 5.72425 13.5501 5.46812C13.5555 5.33991 13.562 5.21185 13.5731 5.08364L13.6047 4.69885C13.6143 4.57033 13.6246 4.44212 13.632 4.31346L13.6383 4.21704L13.6424 4.12046C13.6439 4.08822 13.6452 4.05598 13.6446 4.02374L13.6443 3.92687C13.6443 3.91068 13.6434 3.89463 13.6424 3.87843L13.6391 3.83C13.6365 3.79776 13.6352 3.76552 13.6313 3.73328C13.6277 3.70104 13.6228 3.6691 13.6177 3.637C13.6119 3.60506 13.6057 3.57327 13.5976 3.54178C13.5823 3.47865 13.5604 3.41702 13.5324 3.35839C13.5184 3.32899 13.5024 3.30065 13.484 3.27396C13.4665 3.24667 13.4456 3.22162 13.424 3.19763L13.4217 3.19958L13.4214 3.19943Z" fill="#523421"/>
<path d="M13.8501 6.49962C13.8633 6.544 13.8776 6.58809 13.892 6.63218C13.9084 6.67551 13.9252 6.71885 13.9422 6.76189C13.961 6.80433 13.9803 6.84646 13.9997 6.8886C14.0207 6.92999 14.0425 6.97093 14.0648 7.01172L14.1378 7.13018C14.1639 7.16857 14.1899 7.20696 14.215 7.2458C14.2417 7.28359 14.268 7.32168 14.2938 7.36007C14.3215 7.39726 14.3481 7.43519 14.3751 7.47283C14.4037 7.50942 14.4317 7.54631 14.4607 7.5826C14.4909 7.61784 14.5213 7.65308 14.5519 7.68787L14.6479 7.78894C14.6813 7.82133 14.7152 7.85312 14.7489 7.88506C14.8874 8.00908 15.0382 8.11975 15.1995 8.21107L15.2012 8.20852C15.0502 8.1013 14.906 7.98613 14.7703 7.86137C14.7368 7.82973 14.7036 7.79794 14.6698 7.76675L14.5725 7.66883C14.5416 7.63479 14.5102 7.60105 14.4788 7.56731C14.449 7.53222 14.4182 7.49773 14.388 7.46279C14.3595 7.42665 14.3302 7.39081 14.3021 7.35422C14.2754 7.31658 14.2489 7.27864 14.2231 7.24055C14.1988 7.20126 14.1753 7.16152 14.152 7.12164L14.0867 6.99972C14.0661 6.95848 14.0452 6.91754 14.0236 6.87691C14.0038 6.83537 13.9838 6.79383 13.9635 6.75244C13.945 6.7103 13.9263 6.66817 13.9069 6.62633C13.8893 6.58374 13.8716 6.541 13.8529 6.49857L13.8501 6.49947V6.49962Z" fill="#523421"/>
<path d="M14.3896 8.17765C14.3689 8.16476 14.3479 8.15261 14.3267 8.14076C14.3058 8.12847 14.2846 8.11677 14.2633 8.10522C14.2423 8.09323 14.2211 8.08168 14.1997 8.07028C14.1787 8.05829 14.1574 8.04704 14.1356 8.03639C14.0923 8.01465 14.0483 7.9941 14.0063 7.96996C13.9854 7.95752 13.9648 7.94477 13.9447 7.93157C13.9245 7.91808 13.9052 7.90353 13.8853 7.88959C13.8466 7.86034 13.8081 7.8311 13.7691 7.80261L13.6538 7.71474C13.5766 7.6567 13.5 7.59777 13.4216 7.53989L13.4197 7.54214C13.4854 7.61411 13.558 7.6795 13.6343 7.74008C13.6537 7.75477 13.6731 7.76962 13.6927 7.78387L13.7527 7.82555C13.773 7.83905 13.7931 7.8527 13.8137 7.86574C13.8344 7.87849 13.8554 7.89078 13.8763 7.90323C13.8973 7.91553 13.9187 7.92737 13.9393 7.94012C13.9603 7.95242 13.9809 7.96516 14.0013 7.97836C14.0219 7.99111 14.042 8.00475 14.0621 8.01855L14.1236 8.05814C14.1653 8.08318 14.2088 8.10522 14.2529 8.12592C14.2752 8.13596 14.2974 8.14586 14.3199 8.15516C14.3426 8.16401 14.3654 8.1727 14.3886 8.1805L14.3898 8.1778L14.3896 8.17765Z" fill="#523421"/>
<path d="M13.6439 8.33796C13.622 8.32851 13.6 8.31981 13.5779 8.31141C13.5563 8.30197 13.5345 8.29312 13.5126 8.28442C13.4913 8.27468 13.4696 8.26538 13.448 8.25623C13.427 8.24588 13.4055 8.23629 13.3839 8.22714L13.3196 8.1979C13.2985 8.18725 13.2775 8.1766 13.2569 8.16506C13.2369 8.15246 13.2171 8.13956 13.1977 8.12622C13.1788 8.11212 13.1608 8.09698 13.1423 8.08228C13.1246 8.06669 13.1073 8.05079 13.0896 8.03535C13.0726 8.01915 13.0553 8.00325 13.0381 7.98751L12.9885 7.93772C12.9729 7.92033 12.9566 7.90353 12.9406 7.88644C12.8769 7.81776 12.818 7.74488 12.7614 7.6687L12.7588 7.6702C12.7992 7.75643 12.8537 7.83605 12.9168 7.90788C12.9332 7.92528 12.9496 7.94282 12.9664 7.95977L13.0191 8.00835C13.0375 8.02365 13.0558 8.03909 13.0744 8.05394C13.0936 8.06804 13.1133 8.08168 13.1327 8.09548C13.1527 8.10867 13.1728 8.12112 13.1923 8.13462C13.2126 8.14706 13.2324 8.15996 13.2521 8.17331C13.2722 8.18575 13.2921 8.1991 13.3118 8.21244L13.373 8.24933C13.3942 8.26028 13.4159 8.27063 13.4376 8.28037C13.4599 8.28922 13.4821 8.29777 13.5045 8.30602C13.5273 8.31321 13.5502 8.32011 13.5731 8.32641C13.5964 8.33166 13.6199 8.33661 13.6433 8.34066L13.644 8.33781L13.6439 8.33796Z" fill="#523421"/>
<path d="M14.2729 4.32443C14.2101 4.61295 14.1888 4.91076 14.2062 5.20588C14.2153 5.35343 14.2348 5.50009 14.2608 5.6454C14.2872 5.79071 14.3204 5.93467 14.362 6.07652C14.4451 6.36009 14.562 6.63421 14.7123 6.88914C14.787 7.0169 14.8707 7.13927 14.9617 7.25593C15.0524 7.3726 15.1507 7.48372 15.2566 7.58674L15.2576 7.58569C15.1553 7.47922 15.0592 7.36705 14.9703 7.24948C14.8815 7.13177 14.8004 7.0085 14.7257 6.88149C14.5773 6.62701 14.4573 6.35589 14.37 6.07427C14.3263 5.93347 14.291 5.78996 14.266 5.64465C14.2406 5.49934 14.2259 5.35238 14.2189 5.20528C14.2038 4.91106 14.2219 4.6152 14.2746 4.32488L14.2731 4.32458L14.2729 4.32443Z" fill="#643F2B"/>
<path d="M11.2099 2.6364C11.492 2.52438 11.7978 2.4725 12.1005 2.48764C12.2518 2.49544 12.4028 2.51839 12.5468 2.56487C12.6903 2.61136 12.8285 2.67974 12.9414 2.78021C12.9554 2.79281 12.9697 2.80525 12.9825 2.81905C12.9957 2.83254 13.0089 2.84589 13.0208 2.86059C13.0458 2.88878 13.0679 2.91937 13.0885 2.95101C13.1294 3.01444 13.1621 3.08297 13.1889 3.15375C13.2156 3.22453 13.2368 3.29726 13.2545 3.37089C13.2724 3.44452 13.287 3.5189 13.2979 3.59387C13.3204 3.74368 13.3277 3.89574 13.3209 4.04704C13.3176 4.12277 13.3108 4.1982 13.2999 4.27318L13.2924 4.32941C13.2894 4.34816 13.2858 4.36675 13.2824 4.38534C13.2754 4.42253 13.27 4.46002 13.2613 4.49691C13.1994 4.79383 13.1022 5.08174 13.0272 5.37596C12.99 5.52306 12.958 5.67197 12.9386 5.82283C12.9194 5.97353 12.9119 6.12664 12.9284 6.27825C12.9429 6.42985 12.9801 6.57936 13.0379 6.72032C13.0956 6.86128 13.1726 6.99414 13.2656 7.1147C13.3585 7.23527 13.4672 7.34369 13.5886 7.43546C13.71 7.52723 13.8444 7.60176 13.9868 7.655L13.9874 7.65365C13.7043 7.54283 13.457 7.34894 13.2743 7.10811C13.0917 6.86728 12.9725 6.57741 12.9431 6.27675C12.9266 6.12649 12.9339 5.97443 12.9529 5.82463C12.9719 5.67452 13.0036 5.52621 13.0407 5.37941C13.0784 5.2326 13.1204 5.08684 13.1605 4.94063C13.2006 4.79443 13.2401 4.64762 13.2695 4.49871C13.2781 4.46167 13.2833 4.42403 13.2903 4.38669C13.2934 4.36795 13.2969 4.34935 13.2999 4.33061L13.3071 4.27408C13.3177 4.19895 13.3242 4.12322 13.3271 4.04734C13.3329 3.89559 13.3247 3.74353 13.3038 3.59312C13.2933 3.518 13.2791 3.44332 13.2617 3.36939C13.2444 3.29546 13.2236 3.22228 13.1971 3.1509C13.1707 3.07952 13.1381 3.01024 13.0972 2.94591C13.0766 2.91382 13.0544 2.88263 13.0292 2.85384C13.0173 2.83884 13.0039 2.8252 12.9907 2.8114C12.9778 2.7973 12.9635 2.78456 12.9494 2.77181C12.8354 2.66969 12.6964 2.59831 12.551 2.55258C12.4055 2.50639 12.2533 2.48434 12.1013 2.47745C11.9491 2.4701 11.7963 2.4812 11.6464 2.50684C11.4965 2.53293 11.3499 2.57702 11.2096 2.63505L11.2102 2.6364H11.2099Z" fill="#643F2B"/>
<path d="M10.9093 3.12519C10.9524 2.96518 10.9999 2.80548 11.0691 2.65492C11.1376 2.50467 11.2316 2.36401 11.3568 2.25559C11.419 2.2013 11.489 2.15587 11.5647 2.12333C11.6405 2.09109 11.7218 2.07204 11.804 2.06574C11.9689 2.0527 12.1346 2.08164 12.2945 2.12423C12.6147 2.2094 12.9249 2.34016 13.1989 2.52791C13.4732 2.71416 13.7055 2.96443 13.8609 3.25715C13.8991 3.33063 13.9337 3.40591 13.962 3.48373C13.9898 3.56171 14.0131 3.64119 14.0298 3.72216C14.0456 3.80329 14.0564 3.88532 14.0601 3.96794C14.0642 4.05042 14.0618 4.13334 14.0555 4.21567C14.0298 4.54632 13.9371 4.86708 13.8827 5.19459C13.8546 5.35819 13.8317 5.52299 13.8186 5.68854C13.8054 5.8541 13.8015 6.02055 13.809 6.18655C13.8165 6.3524 13.8359 6.51795 13.8703 6.68051C13.9045 6.84306 13.955 7.00216 14.0215 7.15422L14.0229 7.15362C13.8934 6.84756 13.8323 6.5166 13.8196 6.1861C13.8067 5.85485 13.8416 5.52344 13.897 5.19699C13.9509 4.87023 14.0433 4.54917 14.069 4.21657C14.0752 4.13364 14.0779 4.05027 14.0732 3.96704C14.0689 3.88382 14.0574 3.80119 14.0411 3.71961C14.0236 3.63819 13.9998 3.55826 13.9714 3.48013C13.9422 3.40216 13.9071 3.32658 13.8683 3.2531C13.829 3.17977 13.7842 3.10959 13.7363 3.04166C13.6879 2.97403 13.6347 2.91 13.5788 2.84837C13.5225 2.78718 13.4621 2.73005 13.3993 2.67547C13.3362 2.62133 13.2703 2.57065 13.2021 2.52296C12.9285 2.33327 12.6182 2.2001 12.2973 2.11298C12.2169 2.09124 12.1355 2.07309 12.0529 2.06139C11.9703 2.05015 11.8863 2.04475 11.8029 2.0527C11.7196 2.05945 11.6369 2.07924 11.5602 2.11253C11.4834 2.14597 11.4127 2.19246 11.35 2.24764C11.2241 2.35801 11.1303 2.50032 11.0622 2.65162C10.9934 2.80338 10.9491 2.96413 10.9079 3.12474L10.9094 3.12519H10.9093Z" fill="#643F2B"/>
<path d="M12.5501 5.84008C12.4993 5.69012 12.4862 5.53042 12.4927 5.37326C12.4992 5.21566 12.5262 5.0597 12.5549 4.9045C12.5837 4.74929 12.6169 4.59454 12.636 4.43723C12.6557 4.28038 12.6621 4.12023 12.6371 3.96337C12.6244 3.88509 12.6037 3.80802 12.5741 3.73439C12.5439 3.66091 12.5043 3.59163 12.4569 3.52805C12.4096 3.46447 12.3546 3.40658 12.2931 3.3565C12.2319 3.30611 12.1648 3.26278 12.0933 3.22859C11.9503 3.15916 11.7888 3.13081 11.6303 3.13966C11.4717 3.14896 11.3151 3.19709 11.1793 3.28047L11.188 3.28872C11.2456 3.18825 11.2963 3.08448 11.3542 2.98476C11.3833 2.93512 11.4134 2.88608 11.4484 2.8405C11.4831 2.79506 11.5205 2.75112 11.5649 2.71528C11.5753 2.70554 11.5872 2.69759 11.5989 2.68934C11.6106 2.68124 11.6219 2.6724 11.6346 2.6661C11.6471 2.65935 11.6593 2.65185 11.672 2.6457L11.7114 2.62951C11.7179 2.62651 11.7248 2.62456 11.7315 2.62276L11.7521 2.61706L11.7727 2.61136C11.7796 2.60971 11.7867 2.60881 11.7937 2.60747L11.8148 2.60372C11.8218 2.60267 11.8289 2.60207 11.8361 2.60117C11.8502 2.59937 11.8645 2.59787 11.8787 2.59742C11.9932 2.59097 12.108 2.61136 12.2179 2.64405C12.3281 2.6772 12.435 2.72143 12.5396 2.76987C12.644 2.81875 12.7463 2.87274 12.8424 2.93647C12.9386 3.00005 13.0297 3.07158 13.11 3.15436C13.19 3.23713 13.2594 3.33071 13.3117 3.43358L13.313 3.43298C13.2623 3.32906 13.1942 3.23398 13.1149 3.14971C13.035 3.06588 12.9438 2.99315 12.8478 2.92852C12.7517 2.86374 12.6494 2.80856 12.545 2.75862C12.4403 2.70929 12.3336 2.66325 12.2222 2.62981C12.1111 2.59652 11.9947 2.57552 11.8777 2.58197C11.8631 2.58242 11.8486 2.58392 11.834 2.58572C11.8268 2.58662 11.8194 2.58722 11.8122 2.58827L11.7906 2.59202C11.7834 2.59337 11.7762 2.59442 11.7689 2.59607L11.7476 2.60192L11.7264 2.60777C11.7194 2.60956 11.7122 2.61151 11.7055 2.61466L11.6648 2.63146C11.6516 2.63776 11.639 2.64555 11.6262 2.65245C11.613 2.65905 11.6014 2.66805 11.5894 2.6766C11.5776 2.68514 11.5652 2.69324 11.5546 2.70344C11.5091 2.74048 11.4711 2.78531 11.4361 2.83165C11.4007 2.87799 11.3707 2.92762 11.3414 2.97771C11.2836 3.07818 11.2333 3.1821 11.1769 3.28272L11.1652 3.30371L11.1856 3.29097C11.3189 3.20759 11.4733 3.15856 11.6306 3.14821C11.7876 3.13846 11.948 3.1656 12.0906 3.23383C12.1618 3.26757 12.2289 3.31016 12.2899 3.36025C12.3507 3.41033 12.4051 3.46837 12.4517 3.53195C12.4983 3.59538 12.5372 3.66451 12.5665 3.73754C12.5953 3.81072 12.6154 3.88734 12.6273 3.96502C12.6512 4.12083 12.6438 4.27978 12.6231 4.43573C12.6024 4.59199 12.5722 4.74704 12.5438 4.90255C12.516 5.05805 12.49 5.21461 12.4844 5.37296C12.4783 5.53087 12.4954 5.69132 12.5484 5.84053L12.5498 5.84008H12.5501Z" fill="#643F2B"/>
<path d="M13.6151 4.62994C13.5786 4.95205 13.5624 5.27671 13.5657 5.60106C13.5677 5.76317 13.5755 5.92527 13.5851 6.08707C13.5954 6.24887 13.6069 6.41053 13.6246 6.57173C13.6422 6.73293 13.6653 6.89384 13.7036 7.05189C13.7419 7.20965 13.7939 7.365 13.8687 7.51001C13.943 7.65487 14.0401 7.78863 14.1579 7.90125C14.2168 7.95748 14.2809 8.00832 14.3497 8.05165C14.4185 8.09499 14.4927 8.13008 14.5696 8.15587L14.5701 8.15452C14.4176 8.09874 14.2803 8.00667 14.1652 7.89345C14.0502 7.77993 13.9563 7.64632 13.8824 7.50296C13.8092 7.359 13.7563 7.2053 13.7171 7.04859C13.6782 6.89159 13.6519 6.73159 13.6325 6.57083C13.6228 6.49045 13.6151 6.40978 13.6076 6.3291C13.6005 6.24843 13.5941 6.1676 13.59 6.08677C13.5809 5.92497 13.578 5.76302 13.578 5.60106C13.5771 5.27716 13.5902 4.95325 13.6165 4.63024H13.615L13.6151 4.62994Z" fill="#643F2B"/>
<path d="M14.1617 5.55007C14.1872 5.7879 14.2163 6.02589 14.2632 6.26087C14.2871 6.37828 14.3161 6.4945 14.3485 6.60982C14.3814 6.72498 14.4182 6.83895 14.4623 6.95052C14.5503 7.1732 14.6703 7.38524 14.827 7.56804C14.9048 7.65966 14.9925 7.74304 15.0884 7.81562C15.1841 7.88835 15.2883 7.95013 15.3992 7.99587L15.3998 7.99452C15.2912 7.94413 15.1887 7.88085 15.095 7.80707C15.0012 7.73299 14.9162 7.64857 14.8387 7.55799C14.6846 7.3758 14.562 7.1678 14.4699 6.94752C14.4238 6.8373 14.385 6.72393 14.3536 6.60847C14.3217 6.49315 14.2975 6.37603 14.2755 6.25847C14.2311 6.02364 14.1988 5.78656 14.1632 5.54977H14.1617V5.55007Z" fill="#643F2B"/>
<path d="M13.8245 2.72564C13.8659 2.81441 13.8984 2.90694 13.9236 3.00126C13.9293 3.02495 13.9365 3.04835 13.9412 3.07234L13.9559 3.14402L13.9673 3.2163C13.9712 3.24044 13.9733 3.26473 13.9763 3.28903C13.9868 3.38605 13.991 3.48382 13.9897 3.58144C13.9879 3.67906 13.982 3.77668 13.9718 3.87386C13.9622 3.97118 13.9479 4.0679 13.9313 4.16432C13.9146 4.26074 13.8954 4.35672 13.8739 4.45224C13.832 4.64343 13.7822 4.83298 13.74 5.02417C13.6969 5.21522 13.6598 5.40806 13.6403 5.60346C13.6203 5.79855 13.6173 5.99544 13.6289 6.19129C13.6532 6.58297 13.7409 6.97046 13.8883 7.33365L13.8896 7.33306C13.8208 7.14981 13.7645 6.96191 13.7231 6.77087L13.7086 6.69904L13.7014 6.66305L13.6954 6.62691L13.6832 6.55463L13.6732 6.48205C13.666 6.43377 13.6615 6.38503 13.6559 6.33659C13.6529 6.3123 13.6517 6.28786 13.6496 6.26356C13.6478 6.23927 13.6454 6.21483 13.6442 6.19054C13.6422 6.1418 13.6386 6.09291 13.6386 6.04418L13.6374 5.97085L13.6383 5.89752C13.6382 5.84863 13.6415 5.7999 13.6433 5.75101C13.6443 5.72657 13.6467 5.70228 13.6484 5.67798C13.6503 5.65369 13.6514 5.62925 13.6544 5.60495C13.6729 5.41046 13.7068 5.21747 13.748 5.02612C13.7686 4.93045 13.7905 4.83508 13.8127 4.73971L13.879 4.45359C13.9218 4.26254 13.9625 4.0706 13.9843 3.87551C13.9948 3.77803 14.0019 3.68011 14.0029 3.58189C14.0037 3.48382 13.9989 3.3856 13.9877 3.28798C13.9664 3.09288 13.9125 2.90094 13.8258 2.72519L13.8245 2.72579V2.72564Z" fill="#643F2B"/>
<path d="M12.3661 3.06852C12.5158 3.18234 12.6386 3.32675 12.7392 3.4842C12.79 3.56278 12.8364 3.6445 12.8762 3.72923C12.9163 3.81396 12.9504 3.90153 12.9809 3.99015C13.0419 4.1674 13.0924 4.3481 13.1362 4.5303C13.1574 4.62147 13.1777 4.71309 13.1954 4.80502C13.213 4.89709 13.228 4.98961 13.2422 5.08244H13.2437C13.2346 4.98887 13.2217 4.89574 13.2061 4.80322C13.1908 4.71055 13.1729 4.61832 13.1513 4.52685C13.1089 4.34375 13.0541 4.16365 12.9887 3.98745C12.922 3.81201 12.8478 3.63866 12.7497 3.4776C12.6506 3.31805 12.523 3.17319 12.367 3.06732L12.3661 3.06852Z" fill="#643F2B"/>
<path d="M12.773 5.87689C12.7377 6.08128 12.7194 6.28942 12.7257 6.49726C12.7293 6.60118 12.7398 6.70465 12.7547 6.80737C12.7702 6.91009 12.7903 7.01206 12.8179 7.11223C12.8734 7.31243 12.9611 7.50497 13.0826 7.67472C13.1429 7.75975 13.2123 7.83847 13.289 7.90895C13.3656 7.97958 13.4499 8.04211 13.5409 8.09235L13.5417 8.091C13.4534 8.03642 13.3712 7.97253 13.2965 7.90101C13.222 7.82918 13.1553 7.74985 13.0952 7.66572C12.9761 7.49687 12.8855 7.30823 12.8259 7.10998C12.796 7.01086 12.7738 6.90934 12.7598 6.80662C12.7454 6.70405 12.7398 6.60028 12.7382 6.49696C12.7341 6.28987 12.7491 6.08293 12.7745 5.87704H12.773V5.87689Z" fill="#643F2B"/>
<path d="M11.6126 5.47532C11.6503 5.3507 11.6718 5.22084 11.6775 5.09068L11.6782 4.99291C11.6767 4.96036 11.6755 4.92782 11.6746 4.89528C11.6719 4.86289 11.67 4.83035 11.668 4.79796C11.6643 4.76557 11.6614 4.73318 11.6581 4.70079C11.6425 4.57138 11.6129 4.44346 11.5695 4.32035C11.5264 4.19724 11.4691 4.07877 11.3984 3.96945L11.397 3.9702C11.4595 4.08432 11.5122 4.20308 11.5547 4.32545C11.597 4.44796 11.6288 4.57393 11.6498 4.70199C11.654 4.73408 11.6588 4.76632 11.6626 4.79841C11.6652 4.8308 11.6676 4.86319 11.6694 4.89558C11.67 4.92797 11.67 4.96051 11.6698 4.99291L11.665 5.09008C11.657 5.21949 11.639 5.348 11.6111 5.47502L11.6126 5.47547V5.47532Z" fill="#643F2B"/>
<path d="M10.6988 3.88231C10.7452 4.06451 10.7812 4.24881 10.8065 4.43475L10.8241 4.57436C10.8284 4.62115 10.8325 4.66779 10.8361 4.71472C10.8383 4.76166 10.8398 4.8086 10.8415 4.85553C10.8415 4.90247 10.8407 4.9494 10.8404 4.99634C10.8352 5.18409 10.8168 5.37108 10.7877 5.55628C10.7796 5.60247 10.771 5.6485 10.7634 5.69484L10.7351 5.83265L10.7018 5.96941C10.689 6.01455 10.677 6.05998 10.6645 6.10527L10.666 6.10572C10.6803 6.06103 10.695 6.01635 10.709 5.97136L10.7458 5.83505L10.7775 5.69754C10.7865 5.65135 10.7945 5.60501 10.803 5.55868C10.8337 5.37288 10.8481 5.18454 10.8487 4.99634C10.8481 4.94925 10.847 4.90232 10.8469 4.85523C10.8448 4.8083 10.8427 4.76136 10.8415 4.71427C10.8382 4.66734 10.8352 4.6204 10.8326 4.57346L10.8191 4.43295C10.7961 4.24611 10.7568 4.06121 10.7006 3.88171L10.6991 3.88216L10.6988 3.88231Z" fill="#643F2B"/>
<path d="M10.0077 6.20401C10.0067 6.20296 10.0047 6.20221 10.0032 6.20311C10.0017 6.20386 10.0008 6.20521 10.0002 6.20656C9.99916 6.20926 9.99856 6.21241 10.0004 6.21541C10.0055 6.2214 10.013 6.21826 10.0173 6.21511C10.0263 6.20791 10.0316 6.19936 10.0384 6.19141C10.0513 6.17522 10.0648 6.15932 10.0765 6.14223C10.0887 6.12543 10.1007 6.10849 10.1118 6.09079C10.1234 6.07355 10.1338 6.05555 10.1438 6.03741L10.1585 6.00997L10.1721 5.98192C10.1812 5.96333 10.1898 5.94443 10.1983 5.92554C10.2156 5.8879 10.2324 5.85011 10.2482 5.81172C10.2801 5.7351 10.304 5.65502 10.32 5.57344C10.3353 5.49172 10.3429 5.40849 10.3402 5.32571H10.3387C10.3317 5.40819 10.3209 5.48977 10.3043 5.57044C10.2883 5.65112 10.2668 5.7306 10.2406 5.80887C10.2336 5.82822 10.2273 5.84801 10.2189 5.86691C10.2111 5.88595 10.2033 5.90515 10.1937 5.92344L10.1799 5.95118L10.1645 5.97818L10.1492 6.00502L10.133 6.03126L10.1172 6.0578C10.1117 6.0665 10.106 6.07505 10.1007 6.08389C10.0902 6.10159 10.0788 6.11868 10.0672 6.13578C10.0559 6.15302 10.0442 6.16997 10.0322 6.18676C10.026 6.19471 10.0209 6.20476 10.0142 6.21121C10.0112 6.21436 10.0055 6.21586 10.0032 6.21346C10.0008 6.21121 10.0026 6.20236 10.0067 6.20521L10.0077 6.20401Z" fill="#643F2B"/>
<path d="M9.69687 6.07223C9.71399 5.94372 9.73202 5.8155 9.752 5.68759L9.76672 5.59162C9.77198 5.55968 9.77754 5.52774 9.78355 5.49595C9.78971 5.46415 9.79677 5.43251 9.80368 5.40087C9.81089 5.36938 9.81915 5.33789 9.82681 5.30655C9.85956 5.18119 9.89546 5.05687 9.93377 4.93316C9.97237 4.80959 10.0137 4.68693 10.0569 4.56456L10.0556 4.56396C10.0036 4.68288 9.95825 4.80465 9.91904 4.92836C9.87954 5.05207 9.84634 5.17774 9.81885 5.30445L9.77844 5.49475C9.77213 5.52654 9.76537 5.55833 9.75846 5.58997L9.73968 5.68549C9.71745 5.81325 9.70228 5.94252 9.69522 6.07193H9.69672L9.69687 6.07223Z" fill="#643F2B"/>
<path d="M10.2841 3.53793C10.1929 3.67244 10.1094 3.8122 10.0334 3.95586L9.97838 4.06458C9.9608 4.10117 9.94308 4.13776 9.9249 4.17405C9.90777 4.21079 9.8899 4.24723 9.87202 4.28382C9.85505 4.32071 9.83717 4.35715 9.81975 4.39389C9.75064 4.54099 9.688 4.6911 9.63242 4.84391C9.57669 4.99656 9.52817 5.15192 9.48776 5.30922L9.48926 5.30967C9.53853 5.15491 9.59096 5.00151 9.64699 4.8493C9.70332 4.69725 9.76326 4.54654 9.82726 4.39733C9.84378 4.3603 9.85985 4.32311 9.87683 4.28622C9.89425 4.24963 9.91153 4.21289 9.92971 4.1766C9.94803 4.14046 9.96696 4.10447 9.98589 4.06863L10.0443 3.96186C10.1221 3.81955 10.2027 3.67874 10.2853 3.53883L10.2841 3.53808V3.53793Z" fill="#643F2B"/>
<path d="M9.98561 3.53659C9.86394 3.65836 9.75533 3.79362 9.66174 3.93832L9.59489 4.04884C9.57431 4.08663 9.55358 4.12442 9.5324 4.16176C9.51317 4.2003 9.49319 4.23839 9.47336 4.27648C9.45534 4.31546 9.43641 4.35415 9.41793 4.39299C9.34658 4.5497 9.2895 4.71315 9.24864 4.88065C9.20748 5.048 9.18269 5.2194 9.17578 5.39125H9.17728C9.1935 5.22015 9.22235 5.0507 9.26366 4.88425C9.30527 4.71795 9.3592 4.55465 9.42544 4.39629C9.44302 4.35715 9.46014 4.31771 9.47817 4.27873C9.49755 4.24049 9.51693 4.2021 9.53706 4.16416C9.55839 4.12682 9.58017 4.08993 9.6021 4.05304L9.67225 3.94507C9.76749 3.80231 9.8725 3.66615 9.98682 3.53764L9.98576 3.53659H9.98561Z" fill="#643F2B"/>
<path d="M9.40825 3.86807C9.31572 3.99763 9.23415 4.13529 9.16384 4.27835L9.11397 4.38692C9.09865 4.42366 9.08302 4.46025 9.0671 4.49684C9.05253 4.53387 9.03736 4.57061 9.02203 4.6075C9.00821 4.64484 8.99334 4.68173 8.97907 4.71892C8.92334 4.86813 8.87812 5.02153 8.84432 5.17719C8.81038 5.33284 8.78784 5.4912 8.77793 5.65H8.77943C8.79851 5.49225 8.8251 5.33554 8.85935 5.18049C8.8939 5.02558 8.93626 4.87233 8.98658 4.72162C8.99995 4.68428 9.01287 4.64664 9.02669 4.6093C9.04141 4.57241 9.05613 4.53552 9.07161 4.49878C9.08783 4.46249 9.1045 4.42636 9.12133 4.39037L9.17481 4.28375C9.24676 4.14219 9.32518 4.00393 9.4093 3.86867L9.4081 3.86777L9.40825 3.86807Z" fill="#643F2B"/>
<path d="M8.80495 3.98654C8.75598 4.07051 8.68463 4.13605 8.62123 4.20967C8.55889 4.28465 8.50722 4.36698 8.4617 4.45275C8.44007 4.49609 8.41949 4.54048 8.40461 4.58696C8.40041 4.59836 8.3968 4.61006 8.3935 4.62175C8.39019 4.63345 8.38644 4.645 8.38328 4.65684C8.37757 4.68054 8.37187 4.70423 8.36796 4.72822C8.35009 4.82405 8.34858 4.92272 8.3618 5.01854H8.3633C8.3594 4.92167 8.36511 4.8254 8.38313 4.73092C8.40041 4.63645 8.43 4.54438 8.46891 4.4562C8.47957 4.43461 8.48904 4.41227 8.50151 4.39157C8.50751 4.38107 8.51292 4.37028 8.51953 4.36023C8.52599 4.35003 8.53275 4.33999 8.53936 4.32994C8.5667 4.29005 8.5978 4.25316 8.6304 4.21777C8.66284 4.18223 8.69604 4.14684 8.72714 4.10935C8.75793 4.07186 8.78632 4.03153 8.80615 3.98714L8.8048 3.98639L8.80495 3.98654Z" fill="#643F2B"/>
<path d="M8.98955 4.19427C8.92045 4.28769 8.85436 4.38322 8.79412 4.48279C8.76422 4.53272 8.73688 4.58401 8.70969 4.63529C8.68265 4.68673 8.65637 4.73846 8.63143 4.79095C8.58126 4.89577 8.5419 5.00643 8.51801 5.1207C8.49413 5.23482 8.48677 5.35313 8.50194 5.4686L8.50675 5.46815L8.50104 5.42301H8.49954L8.50209 5.4686L8.5069 5.46815C8.49924 5.35253 8.51005 5.23677 8.53364 5.12385C8.55707 5.01078 8.59387 4.90071 8.63834 4.7938C8.66087 4.74041 8.68656 4.68838 8.7148 4.63769C8.74289 4.58701 8.77414 4.53812 8.80508 4.48908C8.86637 4.39071 8.93022 4.29384 8.99091 4.19487L8.9897 4.19397L8.98955 4.19427Z" fill="#643F2B"/>
<path d="M9.33974 5.90889C9.34875 5.85521 9.35776 5.80197 9.36723 5.74889C9.37173 5.7222 9.37579 5.69536 9.3821 5.66896C9.38555 5.65592 9.38946 5.64287 9.39351 5.62997C9.39772 5.61708 9.40268 5.60448 9.40734 5.59174C9.42731 5.54135 9.4488 5.49186 9.47223 5.44328C9.49506 5.39439 9.52015 5.34656 9.54584 5.29857L9.54464 5.29782C9.51084 5.34071 9.48229 5.38764 9.45781 5.43638C9.43407 5.48557 9.41424 5.5367 9.39952 5.58919C9.39577 5.60238 9.39261 5.61558 9.38841 5.62848C9.38495 5.64167 9.38135 5.65472 9.37744 5.66776C9.37384 5.68081 9.36978 5.69386 9.36572 5.7069L9.35491 5.74634C9.34289 5.79958 9.33703 5.85416 9.33823 5.90874H9.33974V5.90889Z" fill="#643F2B"/>
<path d="M11.0643 5.89333C11.0716 5.89423 11.0794 5.89198 11.0853 5.88734C11.0913 5.88269 11.0956 5.87654 11.0993 5.87009C11.1065 5.85719 11.1102 5.8425 11.1129 5.82855C11.1188 5.80051 11.1254 5.77262 11.1306 5.74443C11.1416 5.68819 11.1521 5.63181 11.1604 5.57498C11.1687 5.51829 11.175 5.46116 11.1826 5.40448C11.19 5.34764 11.1984 5.29096 11.2064 5.23412C11.2227 5.12061 11.2355 5.00664 11.2439 4.89222C11.2526 4.77781 11.2571 4.66324 11.2567 4.54852H11.2552L11.2284 4.89102C11.219 5.00514 11.2091 5.11911 11.1981 5.23322C11.1952 5.26172 11.1927 5.29021 11.1889 5.3187C11.1856 5.34719 11.1819 5.37553 11.1774 5.40388C11.1733 5.43222 11.1685 5.46041 11.1634 5.4886L11.1481 5.57318L11.1192 5.74248L11.1051 5.8272C11.1029 5.84145 11.1006 5.85509 11.0946 5.86784C11.0892 5.88029 11.0788 5.89228 11.0643 5.89198V5.89348V5.89333Z" fill="#643F2B"/>
<path d="M12.1028 5.89103C12.1582 5.76012 12.1844 5.61706 12.1854 5.47475C12.1856 5.40352 12.1788 5.33259 12.1695 5.26226C12.1596 5.19193 12.1467 5.12205 12.1294 5.05307C12.0951 4.91511 12.0424 4.78165 11.9769 4.65539C11.9116 4.52897 11.8336 4.40946 11.7475 4.29654L11.7463 4.29744C11.8249 4.4156 11.8987 4.53662 11.9631 4.66243C12.0272 4.7884 12.0821 4.91916 12.1214 5.05517C12.141 5.1231 12.156 5.19253 12.1644 5.26286C12.1733 5.33304 12.1751 5.40397 12.173 5.4746C12.1695 5.61571 12.1471 5.75622 12.1013 5.89058L12.1027 5.89118L12.1028 5.89103Z" fill="#643F2B"/>
</g>
<defs>
<linearGradient id="paint0_linear_93_1542" x1="14.4782" y1="8.64505" x2="14.4782" y2="17.2856" gradientUnits="userSpaceOnUse">
<stop offset="0.001807" stop-color="#812343"/>
<stop offset="1" stop-color="#BC2848"/>
</linearGradient>
<linearGradient id="paint1_linear_93_1542" x1="12.1596" y1="17.9365" x2="12.1596" y2="28.1489" gradientUnits="userSpaceOnUse">
<stop offset="0.001807" stop-color="#812343"/>
<stop offset="1" stop-color="#BC2848"/>
</linearGradient>
<linearGradient id="paint2_linear_93_1542" x1="19.4164" y1="15.0941" x2="19.4164" y2="22.3504" gradientUnits="userSpaceOnUse">
<stop offset="0.001807" stop-color="#812343"/>
<stop offset="1" stop-color="#BC2848"/>
</linearGradient>
<linearGradient id="paint3_linear_93_1542" x1="18.1683" y1="16.7097" x2="18.1683" y2="28.1373" gradientUnits="userSpaceOnUse">
<stop offset="0.001807" stop-color="#812343"/>
<stop offset="1" stop-color="#BC2848"/>
</linearGradient>
<linearGradient id="paint4_linear_93_1542" x1="10.9192" y1="3.12537" x2="10.9192" y2="3.58288" gradientUnits="userSpaceOnUse">
<stop offset="0.001807" stop-color="#812343"/>
<stop offset="1" stop-color="#BC2848"/>
</linearGradient>
<clipPath id="clip0_93_1542">
<rect width="32.0024" height="31.2938" fill="white" transform="matrix(-1 0 0 1 32.0586 0.344116)"/>
</clipPath>
</defs>
</svg>
