<svg width="44" height="44" viewBox="0 0 44 44" fill="none" xmlns="http://www.w3.org/2000/svg">
<path d="M15.1795 39.6999C15.3435 39.8777 15.4307 40.113 15.4222 40.3547C15.4136 40.5965 15.31 40.8251 15.1339 40.9909L13.1539 42.8425C12.9771 43.0068 12.7423 43.0942 12.5011 43.0854C12.26 43.0767 12.0321 42.9726 11.8676 42.796L0.33654 30.3678C0.172676 30.1899 0.0856398 29.9545 0.0943455 29.7127C0.103051 29.471 0.206795 29.2425 0.383033 29.0768L2.3658 27.2279C2.45329 27.1464 2.55598 27.083 2.66799 27.0413C2.77999 26.9995 2.89913 26.9803 3.01858 26.9846C3.13804 26.9889 3.25548 27.0167 3.36418 27.0665C3.47288 27.1162 3.57072 27.1868 3.6521 27.2744L15.1795 39.6999ZM29.893 16.3149C30.0569 16.4928 30.1439 16.7282 30.1352 16.97C30.1265 17.2117 30.0228 17.4402 29.8466 17.6059L17.3847 29.2482C17.2079 29.4125 16.9731 29.4999 16.732 29.4912C16.4908 29.4824 16.2629 29.3783 16.0984 29.2017L13.1238 25.9916C12.96 25.8137 12.8729 25.5783 12.8816 25.3366C12.8903 25.0949 12.9941 24.8663 13.1703 24.7007L25.6294 13.0583C25.7168 12.9769 25.8194 12.9135 25.9314 12.8718C26.0433 12.83 26.1624 12.8108 26.2817 12.8151C26.4011 12.8194 26.5185 12.8472 26.6271 12.8969C26.7357 12.9467 26.8335 13.0173 26.9148 13.1048L29.893 16.3149ZM19.4195 35.7368C19.7604 36.1042 19.7394 36.6849 19.373 37.0277L17.3902 38.8785C17.3027 38.9599 17.2 39.0233 17.088 39.0651C16.976 39.1068 16.8569 39.1261 16.7374 39.1218C16.618 39.1175 16.5005 39.0896 16.3918 39.0399C16.2831 38.9902 16.1853 38.9195 16.1039 38.832L4.57921 26.4037C4.41523 26.2259 4.32804 25.9906 4.33657 25.7489C4.34511 25.5071 4.44868 25.2786 4.62479 25.1128L6.60392 23.2629C6.78073 23.0987 7.01551 23.0113 7.25669 23.02C7.49787 23.0287 7.72573 23.1328 7.89021 23.3094L19.4195 35.7368ZM38.6209 16.7607C38.7846 16.9388 38.8715 17.1742 38.8626 17.416C38.8538 17.6577 38.7498 17.8862 38.5735 18.0517L36.5916 19.9024C36.4148 20.0669 36.1799 20.1544 35.9386 20.1459C35.6973 20.1374 35.4692 20.0334 35.3044 19.8568L23.7779 7.43136C23.6137 7.25367 23.5264 7.01829 23.5349 6.77649C23.5434 6.53469 23.6472 6.30606 23.8235 6.1404L25.8108 4.2851C25.8982 4.20367 26.0008 4.14027 26.1128 4.09854C26.2247 4.0568 26.3438 4.03754 26.4631 4.04186C26.5825 4.04618 26.6999 4.07399 26.8085 4.1237C26.9171 4.17342 27.0149 4.24406 27.0962 4.33159L38.6209 16.7607ZM42.8544 12.804C43.0181 12.9821 43.105 13.2176 43.0963 13.4595C43.0876 13.7013 42.984 13.9299 42.808 14.0958L40.8297 15.9457C40.7424 16.0272 40.6398 16.0906 40.5279 16.1324C40.416 16.1743 40.297 16.1936 40.1776 16.1894C40.0582 16.1851 39.9408 16.1574 39.8322 16.1078C39.7235 16.0581 39.6257 15.9876 39.5444 15.9001L28.0197 3.46913C27.8559 3.29107 27.7688 3.05564 27.7773 2.81384C27.7859 2.57203 27.8893 2.34332 28.0653 2.17726L30.0453 0.323782C30.1325 0.242213 30.235 0.178671 30.3468 0.136801C30.4586 0.0949319 30.5776 0.075559 30.697 0.0797943C30.8163 0.0840296 30.9337 0.11179 31.0422 0.161482C31.1508 0.211174 31.2485 0.28182 31.3298 0.369366L42.8544 12.804Z" fill="url(#paint0_linear_93_1426)"/>
<path d="M15.1795 39.6999C15.3435 39.8777 15.4307 40.113 15.4222 40.3547C15.4136 40.5965 15.31 40.8251 15.1339 40.9909L13.1539 42.8425C12.9771 43.0068 12.7423 43.0942 12.5011 43.0854C12.26 43.0767 12.0321 42.9726 11.8676 42.796L0.33654 30.3678C0.172676 30.1899 0.0856398 29.9545 0.0943455 29.7127C0.103051 29.471 0.206795 29.2425 0.383033 29.0768L2.3658 27.2279C2.45329 27.1464 2.55598 27.083 2.66799 27.0413C2.77999 26.9995 2.89913 26.9803 3.01858 26.9846C3.13804 26.9889 3.25548 27.0167 3.36418 27.0665C3.47288 27.1162 3.57072 27.1868 3.6521 27.2744L15.1795 39.6999ZM29.893 16.3149C30.0569 16.4928 30.1439 16.7282 30.1352 16.97C30.1265 17.2117 30.0228 17.4402 29.8466 17.6059L17.3847 29.2482C17.2079 29.4125 16.9731 29.4999 16.732 29.4912C16.4908 29.4824 16.2629 29.3783 16.0984 29.2017L13.1238 25.9916C12.96 25.8137 12.8729 25.5783 12.8816 25.3366C12.8903 25.0949 12.9941 24.8663 13.1703 24.7007L25.6294 13.0583C25.7168 12.9769 25.8194 12.9135 25.9314 12.8718C26.0433 12.83 26.1624 12.8108 26.2817 12.8151C26.4011 12.8194 26.5185 12.8472 26.6271 12.8969C26.7357 12.9467 26.8335 13.0173 26.9148 13.1048L29.893 16.3149ZM19.4195 35.7368C19.7604 36.1042 19.7394 36.6849 19.373 37.0277L17.3902 38.8785C17.3027 38.9599 17.2 39.0233 17.088 39.0651C16.976 39.1068 16.8569 39.1261 16.7374 39.1218C16.618 39.1175 16.5005 39.0896 16.3918 39.0399C16.2831 38.9902 16.1853 38.9195 16.1039 38.832L4.57921 26.4037C4.41523 26.2259 4.32804 25.9906 4.33657 25.7489C4.34511 25.5071 4.44868 25.2786 4.62479 25.1128L6.60392 23.2629C6.78073 23.0987 7.01551 23.0113 7.25669 23.02C7.49787 23.0287 7.72573 23.1328 7.89021 23.3094L19.4195 35.7368ZM38.6209 16.7607C38.7846 16.9388 38.8715 17.1742 38.8626 17.416C38.8538 17.6577 38.7498 17.8862 38.5735 18.0517L36.5916 19.9024C36.4148 20.0669 36.1799 20.1544 35.9386 20.1459C35.6973 20.1374 35.4692 20.0334 35.3044 19.8568L23.7779 7.43136C23.6137 7.25367 23.5264 7.01829 23.5349 6.77649C23.5434 6.53469 23.6472 6.30606 23.8235 6.1404L25.8108 4.2851C25.8982 4.20367 26.0008 4.14027 26.1128 4.09854C26.2247 4.0568 26.3438 4.03754 26.4631 4.04186C26.5825 4.04618 26.6999 4.07399 26.8085 4.1237C26.9171 4.17342 27.0149 4.24406 27.0962 4.33159L38.6209 16.7607ZM42.8544 12.804C43.0181 12.9821 43.105 13.2176 43.0963 13.4595C43.0876 13.7013 42.984 13.9299 42.808 14.0958L40.8297 15.9457C40.7424 16.0272 40.6398 16.0906 40.5279 16.1324C40.416 16.1743 40.297 16.1936 40.1776 16.1894C40.0582 16.1851 39.9408 16.1574 39.8322 16.1078C39.7235 16.0581 39.6257 15.9876 39.5444 15.9001L28.0197 3.46913C27.8559 3.29107 27.7688 3.05564 27.7773 2.81384C27.7859 2.57203 27.8893 2.34332 28.0653 2.17726L30.0453 0.323782C30.1325 0.242213 30.235 0.178671 30.3468 0.136801C30.4586 0.0949319 30.5776 0.075559 30.697 0.0797943C30.8163 0.0840296 30.9337 0.11179 31.0422 0.161482C31.1508 0.211174 31.2485 0.28182 31.3298 0.369366L42.8544 12.804Z" fill="url(#paint1_linear_93_1426)" style="mix-blend-mode:overlay"/>
<path d="M15.1795 39.6999C15.3435 39.8777 15.4307 40.113 15.4222 40.3547C15.4136 40.5965 15.31 40.8251 15.1339 40.9909L13.1539 42.8425C12.9771 43.0068 12.7423 43.0942 12.5011 43.0854C12.26 43.0767 12.0321 42.9726 11.8676 42.796L0.33654 30.3678C0.172676 30.1899 0.0856398 29.9545 0.0943455 29.7127C0.103051 29.471 0.206795 29.2425 0.383033 29.0768L2.3658 27.2279C2.45329 27.1464 2.55598 27.083 2.66799 27.0413C2.77999 26.9995 2.89913 26.9803 3.01858 26.9846C3.13804 26.9889 3.25548 27.0167 3.36418 27.0665C3.47288 27.1162 3.57072 27.1868 3.6521 27.2744L15.1795 39.6999ZM29.893 16.3149C30.0569 16.4928 30.1439 16.7282 30.1352 16.97C30.1265 17.2117 30.0228 17.4402 29.8466 17.6059L17.3847 29.2482C17.2079 29.4125 16.9731 29.4999 16.732 29.4912C16.4908 29.4824 16.2629 29.3783 16.0984 29.2017L13.1238 25.9916C12.96 25.8137 12.8729 25.5783 12.8816 25.3366C12.8903 25.0949 12.9941 24.8663 13.1703 24.7007L25.6294 13.0583C25.7168 12.9769 25.8194 12.9135 25.9314 12.8718C26.0433 12.83 26.1624 12.8108 26.2817 12.8151C26.4011 12.8194 26.5185 12.8472 26.6271 12.8969C26.7357 12.9467 26.8335 13.0173 26.9148 13.1048L29.893 16.3149ZM19.4195 35.7368C19.7604 36.1042 19.7394 36.6849 19.373 37.0277L17.3902 38.8785C17.3027 38.9599 17.2 39.0233 17.088 39.0651C16.976 39.1068 16.8569 39.1261 16.7374 39.1218C16.618 39.1175 16.5005 39.0896 16.3918 39.0399C16.2831 38.9902 16.1853 38.9195 16.1039 38.832L4.57921 26.4037C4.41523 26.2259 4.32804 25.9906 4.33657 25.7489C4.34511 25.5071 4.44868 25.2786 4.62479 25.1128L6.60392 23.2629C6.78073 23.0987 7.01551 23.0113 7.25669 23.02C7.49787 23.0287 7.72573 23.1328 7.89021 23.3094L19.4195 35.7368ZM38.6209 16.7607C38.7846 16.9388 38.8715 17.1742 38.8626 17.416C38.8538 17.6577 38.7498 17.8862 38.5735 18.0517L36.5916 19.9024C36.4148 20.0669 36.1799 20.1544 35.9386 20.1459C35.6973 20.1374 35.4692 20.0334 35.3044 19.8568L23.7779 7.43136C23.6137 7.25367 23.5264 7.01829 23.5349 6.77649C23.5434 6.53469 23.6472 6.30606 23.8235 6.1404L25.8108 4.2851C25.8982 4.20367 26.0008 4.14027 26.1128 4.09854C26.2247 4.0568 26.3438 4.03754 26.4631 4.04186C26.5825 4.04618 26.6999 4.07399 26.8085 4.1237C26.9171 4.17342 27.0149 4.24406 27.0962 4.33159L38.6209 16.7607ZM42.8544 12.804C43.0181 12.9821 43.105 13.2176 43.0963 13.4595C43.0876 13.7013 42.984 13.9299 42.808 14.0958L40.8297 15.9457C40.7424 16.0272 40.6398 16.0906 40.5279 16.1324C40.416 16.1743 40.297 16.1936 40.1776 16.1894C40.0582 16.1851 39.9408 16.1574 39.8322 16.1078C39.7235 16.0581 39.6257 15.9876 39.5444 15.9001L28.0197 3.46913C27.8559 3.29107 27.7688 3.05564 27.7773 2.81384C27.7859 2.57203 27.8893 2.34332 28.0653 2.17726L30.0453 0.323782C30.1325 0.242213 30.235 0.178671 30.3468 0.136801C30.4586 0.0949319 30.5776 0.075559 30.697 0.0797943C30.8163 0.0840296 30.9337 0.11179 31.0422 0.161482C31.1508 0.211174 31.2485 0.28182 31.3298 0.369366L42.8544 12.804Z" fill="#C1A875" style="mix-blend-mode:color"/>
<defs>
<linearGradient id="paint0_linear_93_1426" x1="2.478" y1="26.9773" x2="42.5843" y2="17.5831" gradientUnits="userSpaceOnUse">
<stop stop-color="#576265"/>
<stop offset="0.172016" stop-color="#9EA1A1"/>
<stop offset="0.45741" stop-color="#848B8A"/>
<stop offset="0.553567" stop-color="#576265"/>
<stop offset="0.823421" stop-color="#576265"/>
<stop offset="0.925155" stop-color="#757A7B"/>
<stop offset="1" stop-color="#576265"/>
</linearGradient>
<linearGradient id="paint1_linear_93_1426" x1="17.2603" y1="21.5826" x2="8.68182" y2="-0.80306" gradientUnits="userSpaceOnUse">
<stop stop-color="white" stop-opacity="0"/>
<stop offset="1" stop-color="white"/>
</linearGradient>
</defs>
</svg>
