<svg width="31" height="31" viewBox="0 0 31 31" fill="none" xmlns="http://www.w3.org/2000/svg">
<g clip-path="url(#clip0_93_1496)">
<path d="M27.2435 13.383C27.2435 13.1728 27.1872 8.17809 22.2732 3.17849C22.2267 3.13151 22.188 3.07733 22.1588 3.01802C22.1306 2.9618 22.0915 2.91182 22.0436 2.87107C21.9957 2.83031 21.9402 2.79961 21.8802 2.78079C21.8202 2.76197 21.7571 2.75542 21.6945 2.76152C21.6319 2.76763 21.5712 2.78627 21.516 2.81634L18.9318 4.2219C18.918 4.22762 18.9043 4.23426 18.891 4.24135L0.303515 14.3401C0.229417 14.3803 0.167554 14.4398 0.124448 14.5123C0.0813424 14.5848 0.0585912 14.6676 0.0585938 14.7519L0.0585938 26.4725C0.059162 26.9697 0.256903 27.4464 0.608437 27.7979C0.959971 28.1495 1.43659 28.3472 1.93373 28.3478H26.7793C26.8409 28.3478 26.9019 28.3357 26.9587 28.3122C27.0156 28.2886 27.0673 28.2541 27.1108 28.2105C27.1544 28.167 27.1889 28.1153 27.2125 28.0584C27.236 28.0015 27.2481 27.9406 27.2481 27.879C27.2481 15.587 27.2449 13.6661 27.2435 13.383Z" fill="#FFE8C8"/>
<path d="M27.2481 27.8781C27.2481 25.6886 27.248 23.8337 27.2478 22.2531H0.0585938V26.4718C0.059162 26.9689 0.256903 27.4455 0.608437 27.797C0.959971 28.1485 1.43659 28.3463 1.93373 28.3468H26.7793C26.8409 28.3468 26.9019 28.3347 26.9587 28.3112C27.0156 28.2876 27.0673 28.2531 27.1108 28.2096C27.1544 28.166 27.1889 28.1144 27.2125 28.0575C27.236 28.0006 27.2481 27.9396 27.2481 27.8781Z" fill="#FDD9B4"/>
<path d="M27.2435 13.383C27.2435 13.1728 27.1872 8.17809 22.2732 3.17849C22.2267 3.13151 22.188 3.07733 22.1588 3.01802C22.1306 2.9618 22.0915 2.91182 22.0436 2.87107C21.9957 2.83031 21.9402 2.79961 21.8802 2.78079C21.8202 2.76197 21.7571 2.75542 21.6945 2.76152C21.6319 2.76763 21.5712 2.78627 21.516 2.81634L18.9318 4.2219C18.918 4.22762 18.9043 4.23426 18.891 4.24135L0.303515 14.3401C0.229417 14.3803 0.167554 14.4398 0.124448 14.5123C0.0813424 14.5848 0.0585912 14.6676 0.0585938 14.7519L0.0585938 17.5648H0.527379C0.900242 17.5653 1.25772 17.7136 1.52137 17.9772C1.78503 18.2409 1.93333 18.5984 1.93373 18.9713C1.93373 19.593 2.18068 20.1893 2.62025 20.6289C3.05982 21.0685 3.65601 21.3154 4.27766 21.3154C4.8993 21.3154 5.49549 21.0685 5.93506 20.6289C6.37463 20.1893 6.62158 19.593 6.62158 18.9713C6.62158 18.5983 6.76975 18.2406 7.03349 17.9768C7.29724 17.713 7.65495 17.5648 8.02794 17.5648C8.40092 17.5648 8.75864 17.713 9.02238 17.9768C9.28612 18.2406 9.43429 18.5983 9.43429 18.9713V24.1284C9.43429 24.7501 9.68124 25.3463 10.1208 25.7859C10.5604 26.2255 11.1566 26.4725 11.7782 26.4725C12.3999 26.4725 12.996 26.2255 13.4356 25.7859C13.8752 25.3463 14.1221 24.7501 14.1221 24.1284V18.5025C14.1221 18.1295 14.2703 17.7717 14.534 17.508C14.7978 17.2442 15.1555 17.096 15.5285 17.096C15.9015 17.096 16.2592 17.2442 16.5229 17.508C16.7867 17.7717 16.9348 18.1295 16.9348 18.5025V18.9713C16.9348 19.593 17.1818 20.1893 17.6214 20.6289C18.0609 21.0685 18.6571 21.3154 19.2788 21.3154C19.9004 21.3154 20.4966 21.0685 20.9362 20.6289C21.3757 20.1893 21.6227 19.593 21.6227 18.9713V18.5025C21.6227 18.1295 21.7709 17.7717 22.0346 17.508C22.2983 17.2442 22.6561 17.096 23.029 17.096C23.402 17.096 23.7597 17.2442 24.0235 17.508C24.2872 17.7717 24.4354 18.1295 24.4354 18.5025V18.9713C24.4359 19.4685 24.6337 19.9452 24.9852 20.2968C25.3367 20.6483 25.8134 20.8461 26.3105 20.8466H27.2476C27.2467 14.7837 27.2446 13.5999 27.2435 13.383Z" fill="url(#paint0_linear_93_1496)"/>
<path d="M27.2435 13.383C27.2435 13.1728 27.1872 8.17809 22.2732 3.17849C22.2267 3.13151 22.188 3.07733 22.1588 3.01802C22.1306 2.9618 22.0915 2.91182 22.0436 2.87107C21.9957 2.83031 21.9402 2.79961 21.8802 2.78079C21.8202 2.76197 21.757 2.75542 21.6945 2.76152C21.6319 2.76763 21.5712 2.78627 21.516 2.81634L18.9317 4.2219C18.918 4.22762 18.9043 4.23426 18.891 4.24135L0.303503 14.3401C0.21193 14.3898 0.139556 14.4687 0.0978194 14.5642C0.056083 14.6597 0.0473653 14.7664 0.0730443 14.8675C0.0987234 14.9685 0.157334 15.058 0.239613 15.122C0.321891 15.186 0.423144 15.2207 0.527366 15.2207H26.7793C26.841 15.2207 26.9021 15.2085 26.9591 15.1849C27.016 15.1612 27.0678 15.1265 27.1113 15.0828C27.1549 15.0391 27.1894 14.9872 27.2128 14.9302C27.2363 14.8731 27.2483 14.812 27.2481 14.7503L27.2435 13.383Z" fill="#F05C7D"/>
<path d="M23.5842 1.40971C23.2792 1.21878 22.9191 1.13543 22.5613 1.17293C22.2035 1.21044 21.8686 1.36664 21.6098 1.61666C21.3182 1.91262 21.1546 2.3113 21.1541 2.7268C21.1535 3.14231 21.3162 3.54139 21.6071 3.83808C26.2337 8.54601 26.3056 13.3359 26.3056 13.416C26.3069 13.6779 26.3101 15.6567 26.3101 28.3477C26.3104 28.5962 26.4093 28.8346 26.585 29.0104C26.7608 29.1861 26.9991 29.285 27.2476 29.2853H29.1226C29.3712 29.285 29.6095 29.1861 29.7852 29.0104C29.961 28.8346 30.0599 28.5962 30.0601 28.3477L30.0592 13.3732C30.0638 13.2981 30.4277 5.81937 23.5842 1.40971Z" fill="#EAB898"/>
<path d="M28.1855 11.939C27.6884 11.9395 27.2118 12.1372 26.8603 12.4888C26.5088 12.8404 26.3111 13.3171 26.3105 13.8143V28.3478C26.3108 28.5964 26.4097 28.8347 26.5854 29.0105C26.7612 29.1863 26.9995 29.2852 27.248 29.2855H29.123C29.3716 29.2852 29.6099 29.1863 29.7856 29.0105C29.9614 28.8347 30.0603 28.5964 30.0605 28.3478V13.8143C30.06 13.3171 29.8623 12.8404 29.5108 12.4888C29.1593 12.1372 28.6827 11.9395 28.1855 11.939Z" fill="#D89F87"/>
<path d="M18.9543 3.09677C18.822 2.93833 18.6565 2.81088 18.4696 2.72342C18.2826 2.63597 18.0788 2.59064 17.8724 2.59064C17.666 2.59064 17.4621 2.63597 17.2752 2.72342C17.0882 2.81088 16.9227 2.93833 16.7904 3.09677C15.573 4.55682 14.1221 6.54405 14.1221 7.71955C14.1218 7.80979 14.1283 7.89993 14.1414 7.98921C14.151 8.05564 14.1749 8.1192 14.2114 8.17555C14.5498 8.65756 14.8171 9.18574 15.0052 9.74387C15.0319 9.84307 15.0908 9.93064 15.1725 9.99293C15.915 10.6543 16.878 11.0139 17.8721 11.0013C19.9399 11.0013 21.6221 9.52914 21.6221 7.71955C21.6221 6.54405 20.171 4.55682 18.9543 3.09677Z" fill="#E24949"/>
<path d="M17.8724 6.78168C17.8108 6.78169 17.7499 6.76958 17.693 6.74603C17.6361 6.72248 17.5844 6.68795 17.5409 6.64442C17.4974 6.60089 17.4628 6.54921 17.4393 6.49233C17.4157 6.43545 17.4036 6.37449 17.4036 6.31293V5.84418C17.4036 5.71986 17.453 5.60063 17.5409 5.51272C17.6288 5.42481 17.7481 5.37543 17.8724 5.37543C17.9967 5.37543 18.1159 5.42481 18.2038 5.51272C18.2917 5.60063 18.3411 5.71986 18.3411 5.84418V6.31293C18.3411 6.37449 18.329 6.43545 18.3055 6.49233C18.2819 6.54921 18.2474 6.60089 18.2039 6.64442C18.1603 6.68795 18.1087 6.72248 18.0518 6.74603C17.9949 6.76958 17.9339 6.78169 17.8724 6.78168Z" fill="#CC3636"/>
<path d="M19.2787 8.65695C19.2172 8.65697 19.1562 8.64485 19.0993 8.6213C19.0425 8.59775 18.9908 8.56323 18.9473 8.51969C18.9037 8.47616 18.8692 8.42448 18.8456 8.3676C18.8221 8.31073 18.81 8.24976 18.81 8.1882V7.71945C18.81 7.59513 18.8594 7.4759 18.9473 7.388C19.0352 7.30009 19.1544 7.2507 19.2787 7.2507C19.4031 7.2507 19.5223 7.30009 19.6102 7.388C19.6981 7.4759 19.7475 7.59513 19.7475 7.71945V8.1882C19.7475 8.24976 19.7354 8.31073 19.7118 8.3676C19.6883 8.42448 19.6538 8.47616 19.6102 8.51969C19.5667 8.56323 19.515 8.59775 19.4581 8.6213C19.4013 8.64485 19.3403 8.65697 19.2787 8.65695Z" fill="#CC3636"/>
<path d="M16.466 8.65695C16.4044 8.65697 16.3435 8.64485 16.2866 8.6213C16.2297 8.59775 16.178 8.56323 16.1345 8.51969C16.091 8.47616 16.0565 8.42448 16.0329 8.3676C16.0094 8.31073 15.9972 8.24976 15.9973 8.1882V7.71945C15.9973 7.59513 16.0466 7.4759 16.1345 7.388C16.2225 7.30009 16.3417 7.2507 16.466 7.2507C16.5903 7.2507 16.7096 7.30009 16.7975 7.388C16.8854 7.4759 16.9348 7.59513 16.9348 7.71945V8.1882C16.9348 8.24976 16.9227 8.31073 16.8991 8.3676C16.8756 8.42448 16.841 8.47616 16.7975 8.51969C16.754 8.56323 16.7023 8.59775 16.6454 8.6213C16.5885 8.64485 16.5276 8.65697 16.466 8.65695Z" fill="#CC3636"/>
<path d="M18.9367 12.7755C18.8154 12.7753 18.6989 12.7281 18.6117 12.6438C18.5244 12.5595 18.4733 12.4447 18.4689 12.3234C18.4646 12.2022 18.5074 12.084 18.5885 11.9937C18.6695 11.9034 18.7823 11.848 18.9033 11.8392C20.679 11.7112 21.9186 10.7705 22.2194 9.32282C22.2447 9.20105 22.3173 9.09432 22.4213 9.02612C22.5253 8.95791 22.6522 8.93381 22.774 8.95913C22.8957 8.98444 23.0025 9.05709 23.0707 9.1611C23.1389 9.2651 23.163 9.39194 23.1376 9.51371C22.7522 11.3674 21.156 12.6169 18.9711 12.7744C18.9596 12.775 18.9482 12.7755 18.9367 12.7755Z" fill="url(#paint1_linear_93_1496)"/>
<path d="M23.9666 26.4721C23.9051 26.4722 23.8441 26.46 23.7872 26.4365C23.7303 26.4129 23.6787 26.3784 23.6351 26.3349C23.5916 26.2913 23.5571 26.2397 23.5335 26.1828C23.51 26.1259 23.4978 26.0649 23.4979 26.0034V25.5346C23.4979 25.4103 23.5472 25.2911 23.6352 25.2032C23.7231 25.1153 23.8423 25.0659 23.9666 25.0659C24.0909 25.0659 24.2102 25.1153 24.2981 25.2032C24.386 25.2911 24.4354 25.4103 24.4354 25.5346V26.0034C24.4354 26.0649 24.4233 26.1259 24.3997 26.1828C24.3762 26.2397 24.3416 26.2913 24.2981 26.3349C24.2546 26.3784 24.2029 26.4129 24.146 26.4365C24.0891 26.46 24.0282 26.4722 23.9666 26.4721Z" fill="#EAB898"/>
<path d="M20.2163 26.4721C20.1547 26.4722 20.0938 26.46 20.0369 26.4365C19.98 26.4129 19.9283 26.3784 19.8848 26.3349C19.8413 26.2913 19.8068 26.2397 19.7832 26.1828C19.7597 26.1259 19.7475 26.0649 19.7476 26.0034V25.5346C19.7476 25.4103 19.7969 25.2911 19.8849 25.2032C19.9728 25.1153 20.092 25.0659 20.2163 25.0659C20.3406 25.0659 20.4599 25.1153 20.5478 25.2032C20.6357 25.2911 20.6851 25.4103 20.6851 25.5346V26.0034C20.6851 26.0649 20.673 26.1259 20.6494 26.1828C20.6259 26.2397 20.5913 26.2913 20.5478 26.3349C20.5043 26.3784 20.4526 26.4129 20.3957 26.4365C20.3388 26.46 20.2779 26.4722 20.2163 26.4721Z" fill="#EAB898"/>
<path d="M16.466 26.4721C16.4044 26.4722 16.3435 26.46 16.2866 26.4365C16.2297 26.4129 16.178 26.3784 16.1345 26.3349C16.091 26.2913 16.0565 26.2397 16.0329 26.1828C16.0094 26.1259 15.9972 26.0649 15.9973 26.0034V25.5346C15.9973 25.4103 16.0466 25.2911 16.1345 25.2032C16.2225 25.1153 16.3417 25.0659 16.466 25.0659C16.5903 25.0659 16.7096 25.1153 16.7975 25.2032C16.8854 25.2911 16.9348 25.4103 16.9348 25.5346V26.0034C16.9348 26.0649 16.9227 26.1259 16.8991 26.1828C16.8756 26.2397 16.841 26.2913 16.7975 26.3349C16.754 26.3784 16.7023 26.4129 16.6454 26.4365C16.5885 26.46 16.5276 26.4722 16.466 26.4721Z" fill="#EAB898"/>
<path d="M6.15277 26.4721C6.02845 26.4721 5.90922 26.4228 5.82131 26.3348C5.73341 26.2469 5.68402 26.1277 5.68402 26.0034V25.5346C5.68402 25.4103 5.73341 25.2911 5.82131 25.2032C5.90922 25.1153 6.02845 25.0659 6.15277 25.0659C6.27709 25.0659 6.39632 25.1153 6.48423 25.2032C6.57213 25.2911 6.62152 25.4103 6.62152 25.5346V26.0034C6.62152 26.1277 6.57213 26.2469 6.48423 26.3348C6.39632 26.4228 6.27709 26.4721 6.15277 26.4721Z" fill="#EAB898"/>
<path d="M2.40234 26.4721C2.27802 26.4721 2.1588 26.4228 2.07089 26.3348C1.98298 26.2469 1.93359 26.1277 1.93359 26.0034V25.5346C1.93359 25.4103 1.98298 25.2911 2.07089 25.2032C2.1588 25.1153 2.27802 25.0659 2.40234 25.0659C2.52666 25.0659 2.64589 25.1153 2.7338 25.2032C2.82171 25.2911 2.87109 25.4103 2.87109 25.5346V26.0034C2.87109 26.1277 2.82171 26.2469 2.7338 26.3348C2.64589 26.4228 2.52666 26.4721 2.40234 26.4721Z" fill="#EAB898"/>
<path d="M22.0914 25.5346C22.0299 25.5347 21.9689 25.5225 21.912 25.499C21.8551 25.4754 21.8035 25.4409 21.7599 25.3974C21.7164 25.3538 21.6819 25.3022 21.6583 25.2453C21.6348 25.1884 21.6227 25.1274 21.6227 25.0659V24.5971C21.6227 24.4728 21.6721 24.3536 21.76 24.2657C21.8479 24.1778 21.9671 24.1284 22.0914 24.1284C22.2158 24.1284 22.335 24.1778 22.4229 24.2657C22.5108 24.3536 22.5602 24.4728 22.5602 24.5971V25.0659C22.5602 25.1274 22.5481 25.1884 22.5245 25.2453C22.501 25.3022 22.4665 25.3538 22.4229 25.3974C22.3794 25.4409 22.3277 25.4754 22.2708 25.499C22.214 25.5225 22.153 25.5347 22.0914 25.5346Z" fill="#EAB898"/>
<path d="M18.3412 25.5346C18.2796 25.5347 18.2187 25.5225 18.1618 25.499C18.1049 25.4754 18.0532 25.4409 18.0097 25.3974C17.9662 25.3538 17.9316 25.3022 17.9081 25.2453C17.8845 25.1884 17.8724 25.1274 17.8724 25.0659V24.5971C17.8724 24.4728 17.9218 24.3536 18.0097 24.2657C18.0976 24.1778 18.2169 24.1284 18.3412 24.1284C18.4655 24.1284 18.5847 24.1778 18.6726 24.2657C18.7606 24.3536 18.8099 24.4728 18.8099 24.5971V25.0659C18.81 25.1274 18.7978 25.1884 18.7743 25.2453C18.7507 25.3022 18.7162 25.3538 18.6727 25.3974C18.6291 25.4409 18.5775 25.4754 18.5206 25.499C18.4637 25.5225 18.4027 25.5347 18.3412 25.5346Z" fill="#EAB898"/>
<path d="M8.02789 25.5346C7.90357 25.5346 7.78434 25.4853 7.69644 25.3973C7.60853 25.3094 7.55914 25.1902 7.55914 25.0659V24.5971C7.55914 24.4728 7.60853 24.3536 7.69644 24.2657C7.78434 24.1778 7.90357 24.1284 8.02789 24.1284C8.15221 24.1284 8.27144 24.1778 8.35935 24.2657C8.44726 24.3536 8.49664 24.4728 8.49664 24.5971V25.0659C8.49664 25.1902 8.44726 25.3094 8.35935 25.3973C8.27144 25.4853 8.15221 25.5346 8.02789 25.5346Z" fill="#EAB898"/>
<path d="M4.27765 25.5346C4.15333 25.5346 4.0341 25.4853 3.94619 25.3973C3.85829 25.3094 3.8089 25.1902 3.8089 25.0659V24.5971C3.8089 24.4728 3.85829 24.3536 3.94619 24.2657C4.0341 24.1778 4.15333 24.1284 4.27765 24.1284C4.40197 24.1284 4.5212 24.1778 4.60911 24.2657C4.69701 24.3536 4.7464 24.4728 4.7464 24.5971V25.0659C4.7464 25.1902 4.69701 25.3094 4.60911 25.3973C4.5212 25.4853 4.40197 25.5346 4.27765 25.5346Z" fill="#EAB898"/>
<path d="M12.8585 5.44066C12.7267 5.28198 12.5615 5.15428 12.3747 5.06665C12.188 4.97902 11.9842 4.9336 11.7779 4.93362C11.5716 4.93365 11.3678 4.97911 11.1811 5.06678C10.9944 5.15445 10.8292 5.28218 10.6974 5.44089C8.92608 7.56846 8.02795 9.12373 8.02795 10.0637C8.02795 11.8733 9.71024 13.3454 11.778 13.3454C13.8457 13.3454 15.528 11.8733 15.528 10.0637C15.528 9.12373 14.6298 7.56846 12.8585 5.44066Z" fill="#F2726B"/>
<path d="M11.7782 9.12579C11.6539 9.12579 11.5346 9.07641 11.4467 8.9885C11.3588 8.90059 11.3094 8.78136 11.3094 8.65704V8.18829C11.3094 8.06397 11.3588 7.94474 11.4467 7.85684C11.5346 7.76893 11.6539 7.71954 11.7782 7.71954C11.9025 7.71954 12.0217 7.76893 12.1097 7.85684C12.1976 7.94474 12.2469 8.06397 12.2469 8.18829V8.65704C12.2469 8.78136 12.1976 8.90059 12.1097 8.9885C12.0217 9.07641 11.9025 9.12579 11.7782 9.12579Z" fill="#E24949"/>
<path d="M13.1845 11.0011C13.0602 11.0011 12.941 10.9517 12.8531 10.8638C12.7651 10.7759 12.7158 10.6566 12.7158 10.5323V10.0636C12.7158 9.93925 12.7651 9.82002 12.8531 9.73211C12.941 9.6442 13.0602 9.59482 13.1845 9.59482C13.3088 9.59482 13.4281 9.6442 13.516 9.73211C13.6039 9.82002 13.6533 9.93925 13.6533 10.0636V10.5323C13.6533 10.6566 13.6039 10.7759 13.516 10.8638C13.4281 10.9517 13.3088 11.0011 13.1845 11.0011Z" fill="#E24949"/>
<path d="M10.3718 11.0011C10.2475 11.0011 10.1283 10.9517 10.0404 10.8638C9.95246 10.7759 9.90308 10.6566 9.90308 10.5323V10.0636C9.90308 9.93925 9.95246 9.82002 10.0404 9.73211C10.1283 9.6442 10.2475 9.59482 10.3718 9.59482C10.4961 9.59482 10.6154 9.6442 10.7033 9.73211C10.7912 9.82002 10.8406 9.93925 10.8406 10.0636V10.5323C10.8406 10.6566 10.7912 10.7759 10.7033 10.8638C10.6154 10.9517 10.4961 11.0011 10.3718 11.0011Z" fill="#E24949"/>
</g>
<defs>
<linearGradient id="paint0_linear_93_1496" x1="13.6531" y1="2.75931" x2="13.6531" y2="27.0904" gradientUnits="userSpaceOnUse">
<stop offset="0.001807" stop-color="#812343"/>
<stop offset="1" stop-color="#BC2848"/>
</linearGradient>
<linearGradient id="paint1_linear_93_1496" x1="20.808" y1="8.94931" x2="20.808" y2="12.8752" gradientUnits="userSpaceOnUse">
<stop offset="0.001807" stop-color="#812343"/>
<stop offset="1" stop-color="#BC2848"/>
</linearGradient>
<clipPath id="clip0_93_1496">
<rect width="30.0022" height="30.0048" fill="white" transform="translate(0.0585938 0.218353)"/>
</clipPath>
</defs>
</svg>
