<svg width="44" height="44" viewBox="0 0 44 44" fill="none" xmlns="http://www.w3.org/2000/svg">
<path d="M15.1483 39.6999C15.3122 39.8777 15.3994 40.113 15.3909 40.3547C15.3824 40.5965 15.2788 40.8251 15.1027 40.9909L13.1227 42.8425C12.9458 43.0068 12.7111 43.0942 12.4699 43.0854C12.2287 43.0767 12.0008 42.9726 11.8364 42.796L0.30529 30.3678C0.141426 30.1899 0.0543898 29.9545 0.0630955 29.7127C0.0718011 29.471 0.175545 29.2425 0.351783 29.0768L2.33455 27.2279C2.42204 27.1464 2.52473 27.083 2.63674 27.0413C2.74874 26.9995 2.86788 26.9803 2.98733 26.9846C3.10679 26.9889 3.22423 27.0167 3.33293 27.0665C3.44163 27.1162 3.53947 27.1868 3.62085 27.2744L15.1483 39.6999ZM29.8618 16.3149C30.0257 16.4928 30.1127 16.7282 30.104 16.97C30.0953 17.2117 29.9915 17.4402 29.8153 17.6059L17.3535 29.2482C17.1767 29.4125 16.9419 29.4999 16.7007 29.4912C16.4595 29.4824 16.2317 29.3783 16.0672 29.2017L13.0926 25.9916C12.9287 25.8137 12.8417 25.5783 12.8504 25.3366C12.8591 25.0949 12.9628 24.8663 13.1391 24.7007L25.5982 13.0583C25.6856 12.9769 25.7882 12.9135 25.9001 12.8718C26.012 12.83 26.1311 12.8108 26.2505 12.8151C26.3699 12.8194 26.4872 12.8472 26.5958 12.8969C26.7045 12.9467 26.8022 13.0173 26.8835 13.1048L29.8618 16.3149ZM19.3882 35.7368C19.7292 36.1042 19.7082 36.6849 19.3417 37.0277L17.3589 38.8785C17.2715 38.9599 17.1688 39.0233 17.0568 39.0651C16.9448 39.1068 16.8256 39.1261 16.7062 39.1218C16.5867 39.1175 16.4693 39.0896 16.3606 39.0399C16.2519 38.9902 16.154 38.9195 16.0727 38.832L4.54796 26.4037C4.38398 26.2259 4.29679 25.9906 4.30532 25.7489C4.31386 25.5071 4.41743 25.2786 4.59354 25.1128L6.57267 23.2629C6.74948 23.0987 6.98426 23.0113 7.22544 23.02C7.46662 23.0287 7.69448 23.1328 7.85896 23.3094L19.3882 35.7368ZM38.5896 16.7607C38.7534 16.9388 38.8403 17.1742 38.8314 17.416C38.8225 17.6577 38.7186 17.8862 38.5422 18.0517L36.5604 19.9024C36.3835 20.0669 36.1487 20.1544 35.9073 20.1459C35.666 20.1374 35.4379 20.0334 35.2732 19.8568L23.7467 7.43136C23.5825 7.25367 23.4951 7.01829 23.5036 6.77649C23.5122 6.53469 23.6159 6.30606 23.7922 6.1404L25.7796 4.2851C25.867 4.20367 25.9696 4.14027 26.0815 4.09854C26.1935 4.0568 26.3125 4.03754 26.4319 4.04186C26.5513 4.04618 26.6686 4.07399 26.7773 4.1237C26.8859 4.17342 26.9836 4.24406 27.065 4.33159L38.5896 16.7607ZM42.8232 12.804C42.9869 12.9821 43.0738 13.2176 43.0651 13.4595C43.0564 13.7013 42.9528 13.9299 42.7767 14.0958L40.7985 15.9457C40.7111 16.0272 40.6086 16.0906 40.4967 16.1324C40.3848 16.1743 40.2657 16.1936 40.1463 16.1894C40.027 16.1851 39.9096 16.1574 39.8009 16.1078C39.6923 16.0581 39.5945 15.9876 39.5131 15.9001L27.9884 3.46913C27.8246 3.29107 27.7375 3.05564 27.7461 2.81384C27.7546 2.57203 27.858 2.34332 28.034 2.17726L30.014 0.323782C30.1013 0.242213 30.2037 0.178671 30.3156 0.136801C30.4274 0.0949319 30.5464 0.075559 30.6657 0.0797943C30.7851 0.0840296 30.9024 0.11179 31.011 0.161482C31.1196 0.211174 31.2173 0.28182 31.2985 0.369366L42.8232 12.804Z" fill="url(#paint0_linear_93_1440)"/>
<path d="M15.1483 39.6999C15.3122 39.8777 15.3994 40.113 15.3909 40.3547C15.3824 40.5965 15.2788 40.8251 15.1027 40.9909L13.1227 42.8425C12.9458 43.0068 12.7111 43.0942 12.4699 43.0854C12.2287 43.0767 12.0008 42.9726 11.8364 42.796L0.30529 30.3678C0.141426 30.1899 0.0543898 29.9545 0.0630955 29.7127C0.0718011 29.471 0.175545 29.2425 0.351783 29.0768L2.33455 27.2279C2.42204 27.1464 2.52473 27.083 2.63674 27.0413C2.74874 26.9995 2.86788 26.9803 2.98733 26.9846C3.10679 26.9889 3.22423 27.0167 3.33293 27.0665C3.44163 27.1162 3.53947 27.1868 3.62085 27.2744L15.1483 39.6999ZM29.8618 16.3149C30.0257 16.4928 30.1127 16.7282 30.104 16.97C30.0953 17.2117 29.9915 17.4402 29.8153 17.6059L17.3535 29.2482C17.1767 29.4125 16.9419 29.4999 16.7007 29.4912C16.4595 29.4824 16.2317 29.3783 16.0672 29.2017L13.0926 25.9916C12.9287 25.8137 12.8417 25.5783 12.8504 25.3366C12.8591 25.0949 12.9628 24.8663 13.1391 24.7007L25.5982 13.0583C25.6856 12.9769 25.7882 12.9135 25.9001 12.8718C26.012 12.83 26.1311 12.8108 26.2505 12.8151C26.3699 12.8194 26.4872 12.8472 26.5958 12.8969C26.7045 12.9467 26.8022 13.0173 26.8835 13.1048L29.8618 16.3149ZM19.3882 35.7368C19.7292 36.1042 19.7082 36.6849 19.3417 37.0277L17.3589 38.8785C17.2715 38.9599 17.1688 39.0233 17.0568 39.0651C16.9448 39.1068 16.8256 39.1261 16.7062 39.1218C16.5867 39.1175 16.4693 39.0896 16.3606 39.0399C16.2519 38.9902 16.154 38.9195 16.0727 38.832L4.54796 26.4037C4.38398 26.2259 4.29679 25.9906 4.30532 25.7489C4.31386 25.5071 4.41743 25.2786 4.59354 25.1128L6.57267 23.2629C6.74948 23.0987 6.98426 23.0113 7.22544 23.02C7.46662 23.0287 7.69448 23.1328 7.85896 23.3094L19.3882 35.7368ZM38.5896 16.7607C38.7534 16.9388 38.8403 17.1742 38.8314 17.416C38.8225 17.6577 38.7186 17.8862 38.5422 18.0517L36.5604 19.9024C36.3835 20.0669 36.1487 20.1544 35.9073 20.1459C35.666 20.1374 35.4379 20.0334 35.2732 19.8568L23.7467 7.43136C23.5825 7.25367 23.4951 7.01829 23.5036 6.77649C23.5122 6.53469 23.6159 6.30606 23.7922 6.1404L25.7796 4.2851C25.867 4.20367 25.9696 4.14027 26.0815 4.09854C26.1935 4.0568 26.3125 4.03754 26.4319 4.04186C26.5513 4.04618 26.6686 4.07399 26.7773 4.1237C26.8859 4.17342 26.9836 4.24406 27.065 4.33159L38.5896 16.7607ZM42.8232 12.804C42.9869 12.9821 43.0738 13.2176 43.0651 13.4595C43.0564 13.7013 42.9528 13.9299 42.7767 14.0958L40.7985 15.9457C40.7111 16.0272 40.6086 16.0906 40.4967 16.1324C40.3848 16.1743 40.2657 16.1936 40.1463 16.1894C40.027 16.1851 39.9096 16.1574 39.8009 16.1078C39.6923 16.0581 39.5945 15.9876 39.5131 15.9001L27.9884 3.46913C27.8246 3.29107 27.7375 3.05564 27.7461 2.81384C27.7546 2.57203 27.858 2.34332 28.034 2.17726L30.014 0.323782C30.1013 0.242213 30.2037 0.178671 30.3156 0.136801C30.4274 0.0949319 30.5464 0.075559 30.6657 0.0797943C30.7851 0.0840296 30.9024 0.11179 31.011 0.161482C31.1196 0.211174 31.2173 0.28182 31.2985 0.369366L42.8232 12.804Z" fill="url(#paint1_linear_93_1440)" style="mix-blend-mode:overlay"/>
<path d="M15.1483 39.6999C15.3122 39.8777 15.3994 40.113 15.3909 40.3547C15.3824 40.5965 15.2788 40.8251 15.1027 40.9909L13.1227 42.8425C12.9458 43.0068 12.7111 43.0942 12.4699 43.0854C12.2287 43.0767 12.0008 42.9726 11.8364 42.796L0.30529 30.3678C0.141426 30.1899 0.0543898 29.9545 0.0630955 29.7127C0.0718011 29.471 0.175545 29.2425 0.351783 29.0768L2.33455 27.2279C2.42204 27.1464 2.52473 27.083 2.63674 27.0413C2.74874 26.9995 2.86788 26.9803 2.98733 26.9846C3.10679 26.9889 3.22423 27.0167 3.33293 27.0665C3.44163 27.1162 3.53947 27.1868 3.62085 27.2744L15.1483 39.6999ZM29.8618 16.3149C30.0257 16.4928 30.1127 16.7282 30.104 16.97C30.0953 17.2117 29.9915 17.4402 29.8153 17.6059L17.3535 29.2482C17.1767 29.4125 16.9419 29.4999 16.7007 29.4912C16.4595 29.4824 16.2317 29.3783 16.0672 29.2017L13.0926 25.9916C12.9287 25.8137 12.8417 25.5783 12.8504 25.3366C12.8591 25.0949 12.9628 24.8663 13.1391 24.7007L25.5982 13.0583C25.6856 12.9769 25.7882 12.9135 25.9001 12.8718C26.012 12.83 26.1311 12.8108 26.2505 12.8151C26.3699 12.8194 26.4872 12.8472 26.5958 12.8969C26.7045 12.9467 26.8022 13.0173 26.8835 13.1048L29.8618 16.3149ZM19.3882 35.7368C19.7292 36.1042 19.7082 36.6849 19.3417 37.0277L17.3589 38.8785C17.2715 38.9599 17.1688 39.0233 17.0568 39.0651C16.9448 39.1068 16.8256 39.1261 16.7062 39.1218C16.5867 39.1175 16.4693 39.0896 16.3606 39.0399C16.2519 38.9902 16.154 38.9195 16.0727 38.832L4.54796 26.4037C4.38398 26.2259 4.29679 25.9906 4.30532 25.7489C4.31386 25.5071 4.41743 25.2786 4.59354 25.1128L6.57267 23.2629C6.74948 23.0987 6.98426 23.0113 7.22544 23.02C7.46662 23.0287 7.69448 23.1328 7.85896 23.3094L19.3882 35.7368ZM38.5896 16.7607C38.7534 16.9388 38.8403 17.1742 38.8314 17.416C38.8225 17.6577 38.7186 17.8862 38.5422 18.0517L36.5604 19.9024C36.3835 20.0669 36.1487 20.1544 35.9073 20.1459C35.666 20.1374 35.4379 20.0334 35.2732 19.8568L23.7467 7.43136C23.5825 7.25367 23.4951 7.01829 23.5036 6.77649C23.5122 6.53469 23.6159 6.30606 23.7922 6.1404L25.7796 4.2851C25.867 4.20367 25.9696 4.14027 26.0815 4.09854C26.1935 4.0568 26.3125 4.03754 26.4319 4.04186C26.5513 4.04618 26.6686 4.07399 26.7773 4.1237C26.8859 4.17342 26.9836 4.24406 27.065 4.33159L38.5896 16.7607ZM42.8232 12.804C42.9869 12.9821 43.0738 13.2176 43.0651 13.4595C43.0564 13.7013 42.9528 13.9299 42.7767 14.0958L40.7985 15.9457C40.7111 16.0272 40.6086 16.0906 40.4967 16.1324C40.3848 16.1743 40.2657 16.1936 40.1463 16.1894C40.027 16.1851 39.9096 16.1574 39.8009 16.1078C39.6923 16.0581 39.5945 15.9876 39.5131 15.9001L27.9884 3.46913C27.8246 3.29107 27.7375 3.05564 27.7461 2.81384C27.7546 2.57203 27.858 2.34332 28.034 2.17726L30.014 0.323782C30.1013 0.242213 30.2037 0.178671 30.3156 0.136801C30.4274 0.0949319 30.5464 0.075559 30.6657 0.0797943C30.7851 0.0840296 30.9024 0.11179 31.011 0.161482C31.1196 0.211174 31.2173 0.28182 31.2985 0.369366L42.8232 12.804Z" fill="#CDC9C2" style="mix-blend-mode:color"/>
<defs>
<linearGradient id="paint0_linear_93_1440" x1="2.44675" y1="26.9773" x2="42.553" y2="17.5831" gradientUnits="userSpaceOnUse">
<stop stop-color="#576265"/>
<stop offset="0.172016" stop-color="#9EA1A1"/>
<stop offset="0.45741" stop-color="#848B8A"/>
<stop offset="0.553567" stop-color="#576265"/>
<stop offset="0.823421" stop-color="#576265"/>
<stop offset="0.925155" stop-color="#757A7B"/>
<stop offset="1" stop-color="#576265"/>
</linearGradient>
<linearGradient id="paint1_linear_93_1440" x1="17.2291" y1="21.5826" x2="8.65057" y2="-0.80306" gradientUnits="userSpaceOnUse">
<stop stop-color="white" stop-opacity="0"/>
<stop offset="1" stop-color="white"/>
</linearGradient>
</defs>
</svg>
