<svg width="30" height="30" viewBox="0 0 30 30" fill="none" xmlns="http://www.w3.org/2000/svg">
<path d="M27.4534 3.42437C27.3726 3.35449 27.2742 3.30805 27.1688 3.29008C27.0635 3.27211 26.9552 3.28329 26.8558 3.32242L3.10656 12.6166C2.86445 12.7105 2.65946 12.8807 2.52247 13.1013C2.38547 13.3219 2.32391 13.5811 2.34705 13.8398C2.37019 14.0984 2.47679 14.3426 2.65077 14.5354C2.82475 14.7282 3.0567 14.8592 3.31164 14.9087L9.84367 16.1908V23.4377C9.84363 23.718 9.9274 23.992 10.0842 24.2244C10.241 24.4568 10.4637 24.637 10.7237 24.7419C10.8911 24.8091 11.0696 24.8437 11.2499 24.8439C11.4386 24.8435 11.6253 24.8051 11.7988 24.731C11.9724 24.6569 12.1292 24.5486 12.2601 24.4127L15.5413 21.0142L20.5804 25.4334C20.8358 25.6586 21.1644 25.7836 21.505 25.7849C21.6538 25.7843 21.8016 25.761 21.9433 25.7158C22.1753 25.6423 22.3839 25.5093 22.5484 25.33C22.713 25.1507 22.8275 24.9314 22.8808 24.6939L27.6409 3.99859C27.6648 3.89487 27.6599 3.78662 27.6269 3.68545C27.5938 3.58429 27.5339 3.49403 27.4534 3.42437ZM3.28117 13.7556C3.27429 13.6989 3.28706 13.6416 3.31735 13.5932C3.34763 13.5448 3.39359 13.5082 3.44757 13.4896L23.9144 5.47984L10.2034 15.306L3.49328 13.9888C3.4364 13.9805 3.38417 13.9527 3.3455 13.9102C3.30682 13.8676 3.28408 13.813 3.28117 13.7556ZM11.5862 23.7611C11.5214 23.8278 11.4382 23.8738 11.3472 23.8931C11.2562 23.9124 11.1615 23.9042 11.0752 23.8695C10.9888 23.8349 10.9148 23.7753 10.8624 23.6984C10.8101 23.6214 10.7818 23.5307 10.7812 23.4377V16.84L14.8335 20.3908L11.5862 23.7611ZM21.9667 24.4806C21.9486 24.5602 21.91 24.6337 21.8548 24.6937C21.7995 24.7538 21.7295 24.7984 21.6518 24.8232C21.574 24.8479 21.4911 24.8519 21.4113 24.8348C21.3315 24.8177 21.2576 24.78 21.1968 24.7255L11.0659 15.8416L26.4995 4.7814L21.9667 24.4806Z" fill="#AFADAD"/>
</svg>
