<svg width="27" height="27" viewBox="0 0 27 27" fill="none" xmlns="http://www.w3.org/2000/svg">
<path d="M24.6168 2.80353C24.4909 2.69483 24.3378 2.62253 24.1738 2.59444C24.0099 2.56634 23.8414 2.5835 23.6865 2.64408L3.10385 10.699C2.81215 10.8124 2.56519 11.0176 2.40015 11.2835C2.23511 11.5494 2.16093 11.8618 2.18877 12.1735C2.21661 12.4852 2.34497 12.7795 2.55452 13.012C2.76407 13.2445 3.04346 13.4026 3.35065 13.4625L8.6837 14.5096V20.4561C8.68265 20.78 8.7789 21.0968 8.95999 21.3653C9.14108 21.6339 9.39865 21.8418 9.69932 21.9623C9.99953 22.0849 10.3297 22.1143 10.6468 22.0467C10.964 21.9792 11.2535 21.8178 11.4777 21.5835L14.0492 18.9164L18.129 22.4874C18.4234 22.7484 18.803 22.8929 19.1964 22.8936C19.3688 22.8935 19.5402 22.8664 19.7042 22.8134C19.9723 22.7283 20.2134 22.5745 20.4036 22.3673C20.5937 22.16 20.7262 21.9066 20.7879 21.6322L24.9103 3.6983C24.9472 3.53656 24.9394 3.36784 24.8877 3.21021C24.836 3.05259 24.7423 2.912 24.6168 2.80353ZM18.4073 6.45978L9.30831 12.976L4.27081 11.9878L18.4073 6.45978ZM10.3087 20.4561V15.6339L12.8264 17.8419L10.3087 20.4561ZM19.1985 21.2686L10.8013 13.9053L22.8872 5.24307L19.1985 21.2686Z" fill="white"/>
</svg>
